<svg xmlns="http://www.w3.org/2000/svg" xmlns:xlink="http://www.w3.org/1999/xlink" xmlns:inkscape="http://www.inkscape.org/namespaces/inkscape" version="1.1" width="444.549" height="443.579" viewBox="0 0 444.549 443.579">
<defs>
<clipPath id="clip_1">
<path transform="matrix(1,0,0,-1,0,443.579)" d="M0 443.579H444.549V0H0Z"/>
</clipPath>
</defs>
<g inkscape:groupmode="layer" inkscape:label="Layer 1">
<g clip-path="url(#clip_1)">
<path transform="matrix(1,0,0,-1,231.5347,303.9107)" d="M0 0C-.29-.279-.733-.339-1.183-.374-4.271-.422-9.009-.408-12.248-.384L-12.382-.382C-14.402-.348-17.285-.602-16.819 2.164-15.014 12.195-12.466 22.31-9.798 32.124-8.02 38.424-6.066 24.816-5.61 23.49-3.728 16.588-2.145 9.529-.187 2.637 .011 1.818 .512 .575 0 0M12.045 8.359 12.011 8.487C9.701 17.926 7.495 27.728 4.679 37.108 3.724 40.157 3.179 43.812 1.946 46.647 .469 49.917-2.856 49.729-6.296 49.47-9.446 49.03-14.61 49.467-16.978 47.711-17.895 46.948-18.365 45.765-18.855 43.899-20.748 35.986-22.584 27.915-24.817 20.065-27.786 7.103-30.701-6.314-33.2-19.372-33.423-20.87-33.906-22.654-32.751-23.742-31.189-25.066-26.99-25.557-24.464-25.535-16.863-25.215-19.96-13.62-16.34-9.71-15.598-9.061-14.591-8.815-13.599-8.705-9.75-8.367-5.573-8.735-1.698-8.643-.773-8.638 .284-8.722 1.025-9.177 1.996-9.736 2.469-10.871 2.776-11.931 3.546-14.721 4.214-17.526 5.13-20.239 6.92-26.81 9.682-25.066 15.117-24.308 17.145-23.798 21.96-23.455 21.009-21.164 19.521-16.19 14.327 .809 12.045 8.359" fill="#2c8694"/>
<path transform="matrix(1,0,0,-1,186.2695,264.406)" d="M0 0C-.337-5.269-5.906-6.415-10.256-6.319L-15.104-6.321C-16.885-6.321-18.873-6.309-20.661-6.097-22.121-5.903-21.742-5.444-21.803-4.105-21.802-3.69-21.804-3.28-21.803-2.837-21.76 5.854-21.886 28.611-21.755 33.743-21.43 34.432-20.792 34.301-19.819 34.479-15.523 34.852-4.225 35.756-1.16 31.776-.202 30.46 .076 29.035 .198 27.53 .723 20.533 .932 7.081 0 0M16.03 .393C16.496 9.441 17.008 26.675 16.375 35.937 16.144 41.927 13.616 48.121 7.04 49.283-3.389 52.039-22.799 51.923-33.932 51.007-36.383 51.025-37.364 48.919-37.182 46.607-37.355 9.199-37.583-31.616-37.068-68.974-37.067-71.364-35.239-72.265-33.172-72.171-29.716-71.97-26.369-72.12-23.128-71.453-21.811-71.002-21.526-69.613-21.546-68.335-21.717-63.274-22.049-57.998-22.153-52.92L-22.156-52.784C-22.306-44.226-22.216-27.989-22.343-19.487-22.324-18.811-22.291-18.21-21.856-17.72-21.256-17.021-19.729-16.992-17.934-17.022-15.324-17.049-7.463-17.063-4.742-16.901 3.562-16.527 11.569-13.988 14.51-6.22 15.385-4.085 15.893-1.829 16.03 .393" fill="#2c8694"/>
<path transform="matrix(1,0,0,-1,276.362,247.59832)" d="M0 0C-1.555-1.728-5.027-1.091-7.445-1.309-8.778-1.351-9.759-.484-9.891 .831-10.44 4.648-10.118 10.507-10.25 14.458L-10.255 14.607C-10.349 16.849-10.291 19.306-10.087 21.74-10.011 22.529-9.886 23.409-9.328 23.98-8.841 24.489-8.013 24.7-6.925 24.746-5.034 24.794-2.924 24.735-1.044 24.384 6.246 23.73 3.249 3.599 0 0M47.979-68.555C43.492-67.588 36.47-68.927 32.395-66.465 30.832-65.662 29.722-64.384 29.163-62.838 24.991-51.85 17.443-21.397 11.518-11.345 11.173-10.262 12.676-9.49 13.486-8.908 15.438-7.652 17.277-5.586 18.256-3.28 19.156-1.23 19.39 .898 19.567 3.081 20.093 9.591 20.756 18.203 18.685 24.227 15.189 35.842-1.919 34.499-12.418 34.661-15.627 34.35-21.555 35.426-23.12 31.932L-23.17 31.803C-24.414 5.033-23.938-24.265-23.546-51.099-23.416-53.699-22.431-55.003-19.63-55.395-16.594-55.918-11.723-57.091-9.937-55.529-8.916-54.717-8.71-53.252-8.607-51.951-8.117-42.103-8.685-30.548-9.151-20.532-9.244-16.6-10.47-12.515-5.402-12.723 3.485-11.616 9.9-46.953 12.023-51.81 16.298-71.633 19.604-79.86 41.978-79.617 48.775-79.402 49.89-80.895 49.384-73.127 49.25-71.581 49.624-69.343 47.979-68.555" fill="#2c8694"/>
<path transform="matrix(1,0,0,-1,388.6258,233.43822)" d="M0 0C-3.525 .46-6.662 .926-7.871-2.68-11.764-12.81-14.474-23.783-18.355-33.958-19.299-36.225-20.241-35.036-21.008-33.387-24.98-25.342-28.521-15.311-32.093-7.711-32.685-6.753-33.798-6.443-34.89-6.432-36.631-6.419-39.355-6.6-41.339-6.64-42.602-6.679-43.648-6.759-44.213-7.137L-44.297-7.195C-45.21-7.876-44.783-9.476-44.42-10.561-39.945-22.552-33.968-34.501-28.346-46.114-27.305-48.232-26.557-50.24-26.322-52.527-25.597-59.771-25.508-76.907-25.531-88.808-25.565-87.861-25.584-87.306-25.584-87.419-25.587-88.679-25.587-89.921-25.581-91.135-25.581-91.209-25.554-91.275-25.538-91.345-25.544-93.265-25.553-95.001-25.561-96.458-25.563-96.786-25.399-97.067-25.159-97.255-25.154-97.334-25.15-97.414-25.145-97.492-25.372-97.683-25.522-97.96-25.515-98.28-25.481-99.824-25.431-101.299-25.362-102.692-25.58-107.136-20.69-106.355-17.022-106.415-14.45-106.36-9.813-106.713-9.813-103.328-9.754-101.738-9.703-100.048-9.658-98.284-9.651-98.012-9.757-97.765-9.927-97.578-9.922-97.489-9.917-97.398-9.912-97.309-9.631-97.128-9.433-96.828-9.43-96.471-9.334-85.358-9.375-60.693-9.376-53.073-9.417-51.091-8.962-49.21-8.253-47.285-2.859-32.892 .504-19.18 5.995-4.47 8.214 .593 3.363-.561 0 0" fill="#2c8694"/>
<path transform="matrix(1,0,0,-1,354.019,223.40721)" d="M0 0 .048 .092C.851 2.633 .287 5.787 .439 8.519 .61 11.445-.781 12.532-3.655 12.454-16.674 12.165-32.796 12.584-45.202 12.72-46.577 12.722-48.163 12.68-49.306 11.981-51.304 10.792-51.317 7.729-51.404 5.477-51.462 3.313-51.77 .231-49.518-.513-46.554-1.418-43.323-1.002-40.237-1.303-36.762-1.426-33.472-1.254-33.679-5.275-33.241-27.094-35.014-51.032-33.785-72.53-32.705-75.338-29.467-74.992-27.005-74.844-24.459-74.636-21.015-74.82-19.442-73.299-18.528-72.345-18.614-70.609-18.617-69.237-18.904-48.219-19.374-26.472-19.375-5.36-19.668-.854-16.773-.94-13.141-1.055-11.242-1.068-9.187-1.098-7.245-1.126-3.671-1.05-1.132-1.71 0 0" fill="#2c8694"/>
<path transform="matrix(1,0,0,-1,72.7953,200.91211)" d="M0 0C26.496-.302 56.44-.53 83.035-.242 90.346-.688 93.022 2.723 92.609 10.297 93.067 14.089 89.588 13.754 86.872 13.486L86.771 13.48C81.38 13.188 60.371 12.61 54.083 12.339 52.587 12.268 52.615 13.266 52.485 14.876 51.237 49.826 53.358 78.828 52.025 110.59 51.894 112.728 53.039 113.806 55.032 113.669 64.165 113.713 77.569 112.956 86.048 114.51 90.538 115.733 90.237 123.82 89.75 127.79 84.834 128.251 46.381 126.449 24.063 126.078 16.184 125.795 11.213 125.889 9.187 125.686 7.422 123.515 7.567 118.433 7.716 115.287 7.853 111.307 30.983 116.105 33.835 113.286 37.942 78.381 35.091 43.493 34.801 11.854 29.569 11.508 7.097 11.576 1.716 11.571-1.442 11.452-.427 6.141-.932 3.563-.973 2.324-1.153 .723 0 0" fill="#2c8694"/>
<path transform="matrix(1,0,0,-1,156.3204,104.108798)" d="M0 0C-6.879-.042-16.247-.558-18.887-8.113L-18.94-8.263C-28.578-48.324 11.932-31.79 11.073-53.335 11.135-58.492 7.541-63.428 2.056-62.158-.682-61.569-2.339-58.661-2.839-55.908-3.424-53.722-3.047-51.211-4.464-49.375-6.434-47.201-11.375-47.978-14.529-47.852-18.037-47.791-22.109-47.833-21.823-52.481-21.41-57.856-19.312-64.439-15.046-67.836-12.994-69.341-10.374-70.154-7.623-70.662 6.318-72.543 28.197-71.914 26.264-53.054 25.491-44.235 22.608-35.781 13.422-32.982 7.783-30.794 .817-30.16-3.743-26.063-8.603-20.8-7.392-7.425 2.505-10.269 6.736-11.722 6.751-17.485 7.613-22.279 7.879-24.275 9.151-25.873 11.222-26.085 14.919-26.449 19.455-26.739 22.42-25.253 25.36-23.155 24.203-16.424 23.767-13.1 22.46-1.607 12.652 .288 0 0" fill="#2c8694"/>
<path transform="matrix(1,0,0,-1,196.7044,195.7942)" d="M0 0C.709-1.061 2.43-1.135 3.746-1.031 19.317 .002 36.784 1.897 52.181 2.355 55.316 2.304 56.545 4.055 56.515 7.1 56.649 11.209 56.267 14.85 51.762 14.209 42.519 13.6 29.234 13.18 20.129 12.211 17.781 12.07 14.576 11.051 12.785 13.011 8.416 43.467 10.457 80.923 6.472 111.041 6.367 112.141 6.142 113.627 5.303 114.179L5.213 114.24C3.108 115.172 .525 113.953-1.689 113.759-5.003 113.234-8.239 112.981-7.649 109.345-3.747 78.254-5.311 29.148 0 0" fill="#2c8694"/>
<path transform="matrix(1,0,0,-1,234.4883,137.6246)" d="M0 0C1.805 10.031 4.352 20.146 7.021 29.96 8.798 36.26 10.752 22.652 11.208 21.326 13.091 14.424 14.674 7.365 16.631 .474 16.83-.346 17.331-1.589 16.819-2.164 16.528-2.443 16.086-2.503 15.635-2.538 12.547-2.585 7.81-2.571 4.571-2.548L4.437-2.546C2.416-2.511-.466-2.766 0 0M-15.203-26.434C-12.19-27.554-6.79-28.611-4.538-26.563-1.925-24.278-1.874-18.14-.8-14.032-.356-12.012 1.391-10.923 3.367-10.851 7.241-10.545 11.427-10.897 15.299-10.806 16.65-10.797 18.057-11.06 18.823-12.258 20.611-16.056 20.98-20.467 22.67-24.304 23.112-25.416 23.732-26.594 24.886-27.022 25.633-27.315 26.608-27.288 27.464-27.177 30.338-26.755 34.004-26.243 36.216-25.464 38.805-24.793 37.677-22.505 37.188-20.515 36.177-16.887 35-11.798 33.93-8.501L33.889-8.385C28.27 5.738 25.739 20.935 21.383 35.467 19.104 42.697 20.157 48.656 10.534 47.292 7.284 46.687 2.952 47.42 .24 45.668-1 44.764-1.564 43.09-1.978 41.597-4.57 31.656-7.152 21.427-9.562 11.433-11.429 2.082-13.763-7.597-15.613-17.05-15.98-18.979-16.377-20.971-16.653-22.819-16.892-24.49-16.701-25.737-15.203-26.434" fill="#2c8694"/>
<path transform="matrix(1,0,0,-1,279.9642,131.89331)" d="M0 0C1.115-18.482 2.143-38.292 3.092-56.925 3.171-58.866 3.669-61.328 5.824-61.666 8.405-61.958 12.408-61.452 14.073-59.797 14.954-58.859 15.125-57.351 15.191-56.053 16.331-37.7 12.171-16.851 12.88 1.305 13.307 1.619 13.984-.028 14.268-.537 20.425-13.101 26.832-25.705 33.336-38.091 34.787-40.644 37.631-40.655 40.345-40.609 41.512-40.606 42.73-40.649 43.859-40.366 46.999-39.603 46.331-35.6 46.656-33.109 47.624-23.246 48.815-13.069 49.92-3.069 51.519 13.338 53.819 31.916 55.036 48.245 55.22 51.026 55.401 53.605 55.417 55.806 55.462 57.243 54.42 58.27 53.036 58.579 50.55 59.182 47.921 59.449 45.419 59.608 44.543 59.656 43.492 59.608 42.808 59.08L42.721 59.008C42.022 58.441 41.855 57.196 41.785 56.22 39.997 35.296 36.958 6.809 35.981-13.792 35.922-14.801 35.795-16.243 34.756-14.864 34.418-14.421 34.014-13.738 33.614-13.056 29.133-5.336 24.698 2.653 21.132 10.71 18.582 17.042 15.908 23.526 13.031 29.721 12.052 31.8 10.618 32.494 8.533 32.535 5.802 32.661 1.975 32.966 .094 31.376-1.264 30.305-1.422 28.288-1.345 26.58-.987 18.545-.504 8.575 0 0" fill="#2c8694"/>
<path transform="matrix(1,0,0,-1,358.4858,159.55332)" d="M0 0C.411 6.07 .984 12.624 1.615 19.321 2.939 32.689 4.356 47.594 5.531 60.43L5.564 60.564C5.894 62.179 7.437 62.675 8.918 62.644 13.655 62.462 19.988 62.012 21.764 56.883 25.633 44.737 20.093 20.599 19.369 7.254 19.317 4.214 18.444 .365 16.371-1.831 13.431-5.037 8.852-4.637 3.685-4.06 1.107-3.886-.387-2.667 0 0M-13.773-12.679C-8.03-13.651-2.382-13.827 3.471-14.166L3.67-14.174C26.656-15.258 32.975-6.453 33.247 14.381 34.016 21.865 35.701 36.141 36.405 45.589 37.113 51.699 36.756 59.026 32.766 63.863 25.088 73.652 7.811 72.901-5.008 73.982-6.287 74.082-7.847 74.058-8.769 73.19-9.713 72.352-9.966 70.759-10.089 69.464-12.378 45.358-15.6 18.338-18.199-6.11-18.761-9.728-17.556-12.123-13.773-12.679" fill="#2c8694"/>
<path transform="matrix(1,0,0,-1,134.4868,212.74011)" d="M0 0C-6.385-2.101-11.594-6.09-16.414-10.569-16.652-10.798-16.905-11.007-17.143-11.188-17.181-11.141-17.164-11.164-17.145-11.189-18.053-11.848-19.201-11.561-20.366-11.024-23.503-9.583-26.665-8.214-29.822-6.836-32.532-5.65-34.169-6.785-33.781-9.758-33.647-10.771-33.513-11.785-33.37-12.804-32.863-16.371-32.303-19.929-31.652-23.474-31.402-24.875-31.41-26.118-31.751-27.324-31.861-27.752-32.025-28.165-32.227-28.582-32.281-28.688-32.359-28.793-32.442-28.908-42-41.979-49.64-56.107-55.555-71.169-59.895-82.219-63.317-93.509-63.503-105.504-63.609-111.846-62.637-117.954-59.01-121.791-55.198-125.456-53.802-125.215-52.156-121.748-51.78-120.956-51.408-120.162-51.034-119.369L-53.912-112.471-46.533-109.826C-46.294-109.319-51.366-102.056-51.366-102.056L-42.47-101.224C-42.106-100.456-41.745-99.686-41.381-98.919-31.811-78.743-22.216-58.568-12.637-38.397-7.188-26.911-1.745-15.434 3.698-3.958 4.305-2.682 4.829-1.377 3.618-.149 2.474 1.02 1.224 .401 0 0" fill="#2c8694"/>
<path transform="matrix(1,0,0,-1,394.1366,209.7832)" d="M0 0C-2.02 .207-4.015 .106-6.008-.274-10.364-1.105-14.505-3.371-17.349-6.778-20.15-10.134-18.238-10.679-16.868-10.168-13.138-8.776-9.054-8.617-5.228-9.723-3.183-10.314-1.335-11.405 .682-12.073 2.715-12.747 4.993-12.812 6.905-11.736 8.691-10.731 9.571-8.673 9.275-6.678 8.957-4.543 7.634-2.879 5.823-1.767 4.097-.707 1.998-.205 0 0" fill="#2c8694"/>
<path transform="matrix(1,0,0,-1,77.5858,108.57532)" d="M0 0C-.158 1.477-2.71 2.86-2.841 2.92-8.531 5.546-12.781 10.703-14.539 16.696-15.41 19.666-15.665 22.806-15.16 25.867-14.826 27.89-14.47 29.966-15.501 31.859-16.291 33.31-17.735 34.277-19.264 34.808-22.346 35.88-25.87 34.967-28.426 33.065-31.114 31.066-33.083 28.045-33.714 24.741-35.183 17.052-30.449 9.928-24.548 5.497-21.114 2.919-17.176 1.004-13.218-.625-9.257-2.256-4.675-3.329-.686-1.196-.295-.986 .049-.457 0 0" fill="#2c8694"/>
<path transform="matrix(1,0,0,-1,74.5012,115.475009)" d="M0 0C-4.787-1.055-9.968-.581-14.451 1.432-16.788 2.482-18.94 4.097-21.557 4.359-23.953 4.599-26.1 3.359-27.429 1.416-30.218-2.663-27.913-7.795-24.077-10.203-19.984-12.772-14.362-12.618-9.894-11.267 .751-8.05 1.696 .374 0 0" fill="#2c8694"/>
<path transform="matrix(1,0,0,-1,408.3434,190.5162)" d="M0 0C-1.474 2.944-4.097 5.2-7.151 6.375-13.994 9.005-21.41 5.542-26.306 .738-29.204-2.105-31.614-5.486-33.754-8.922-35.993-12.519-39.966-20.736-38.848-22.332-37.581-24.14-32.507-17.87-31.393-16.737-29.139-14.446-26.327-12.777-23.232-11.91-19.633-10.902-15.839-10.927-12.144-11.265-8.516-11.597-4.609-12.113-1.499-9.762-.041-8.66 .912-7.133 1.132-5.306 1.353-3.464 .819-1.636 0 0" fill="#2c8694"/>
<path transform="matrix(1,0,0,-1,90.9645,361.6134)" d="M0 0C.077-.383 .153-1.456 .153-2.72V-3.257C.153-5.517 .345-8.199 .383-10.421L.421-14.558V-14.788L.383-16.167 .421-17.585 .46-23.637C.46-24.748 .613-26.089 .575-27.085L.536-27.966V-28.158C.536-28.426 .575-28.733 .575-28.962V-29.384C-1.073-29.805-3.755-29.997-5.862-30.15-5.823-29.077-5.976-27.966-5.938-26.894L-5.9-25.744C-5.9-25.476-5.976-25.246-5.976-24.978L-5.938-24.135V-23.982L-6.015-19.844-5.976-19.117C-5.938-18.274-6.053-17.355-6.053-16.167V-12.144L-6.666-13.14C-6.819-13.485-7.011-14.06-7.164-14.443L-8.045-16.741C-8.122-16.933-8.275-17.086-8.313-17.316L-8.543-17.968-8.85-18.619-10.152-21.799C-10.229-21.952-10.267-22.143-10.344-22.258-11.378-22.335-13.064-22.411-13.945-22.526L-14.558-20.381-15.515-17.086C-15.592-16.895-15.63-16.588-15.707-16.397L-17.163-11.416C-17.24-11.302-17.278-11.11-17.316-10.957V-17.316C-17.316-18.772-17.431-20.381-17.431-21.875-19.27-22.373-20.266-22.603-22.756-22.603H-23.675C-24.288-22.603-24.403-22.45-24.403-22.105-24.403-21.875-24.365-21.645-24.365-21.3V-18.887C-24.365-14.136-24.403-13.83-24.365-12.91L-24.25-10.688C-24.173-9.54-24.097-8.543-24.097-7.509V-6.244C-24.097-6.053-24.058-5.862-24.058-5.67L-23.943-3.985C-23.829-2.107-23.675-.422-23.714 .651-21.415 .881-18.504 .996-15.017 1.073L-14.711 .153C-14.673 0-14.596-.23-14.596-.345L-13.791-2.95-13.715-3.41-13.217-4.904-12.834-6.398-11.799-9.922-11.646-10.497-11.416-11.302-10.803-9.54-10.344-8.199C-10.229-8.007-10.152-7.815-10.076-7.585L-9.233-5.44C-9.003-4.827-8.773-4.291-8.505-3.678L-8.237-3.103-7.317-.766C-7.087 .115-5.095 .153-3.486 .153-2.644 .153-.996 .115 0 0" fill="#2c8694"/>
<path transform="matrix(1,0,0,-1,107.1314,362.57133)" d="M0 0C0-.153 .038-.268 .038-.421 .038-1.111-.191-1.839-.191-2.529L-.421-17.201C-.421-18.044 .23-18.235 .69-18.235 2.873-18.235 3.908-18.121 3.908-17.431 3.908-17.048 3.946-16.397 3.908-15.592L3.831-13.868C3.793-13.255 3.754-12.68 3.754-11.991V-11.378C3.754-10.765 3.678-10.114 3.678-9.501L3.639-7.317C3.639-6.743 3.563-6.091 3.563-5.44V-2.758C3.563-2.184 3.524-1.762 3.524-1.149 3.524-.077 3.409 .881 3.409 1.149L10.957 1.073C10.957-2.529 10.727-4.482 10.803-7.087L10.842-8.198V-10.229L10.88-12.374 10.918-13.293 10.88-14.213 10.918-15.745 10.88-17.163C10.765-20.726 7.739-23.446 3.371-23.675L1.149-23.79C.651-23.829 .191-23.867-.23-23.867H-1.877C-2.337-23.867-2.797-23.829-3.218-23.79L-4.482-23.675C-6.398-23.484-8.735-22.028-9.501-19.844-9.616-19.27-9.654-18.963-9.692-18.427-9.731-18.312-9.731-18.159-9.731-17.546-9.731-16.665-9.884-15.592-9.999-13.14V-5.976C-9.999-5.363-9.961-4.712-9.961-4.061V-1.494C-9.961-1.188-9.922-.958-9.922-.651V.46C-6.934 .383-2.375 0 0 0" fill="#2c8694"/>
<path transform="matrix(1,0,0,-1,128.0484,361.80543)" d="M0 0 .92 .115 3.716 .23 6.589 .192C11.914 .115 15.899 0 16.971-2.682L17.201-3.256C17.431-3.869 17.393-4.597 17.508-5.21 17.584-5.478 17.661-6.359 17.661-7.279 17.661-8.313 17.584-9.385 17.316-9.654 16.626-10.267 15.286-9.769 13.523-9.769 11.953-9.769 9.692-10.075 8.773-9.845 8.62-8.696 8.39-7.585 8.39-6.474 8.39-5.401 8.275-4.75 6.359-4.75 4.406-4.75 4.636-6.015 4.636-6.819 4.636-8.39 5.248-9.462 6.359-9.884L7.202-10.113C11.914-11.378 15.669-11.646 16.895-13.83 18.312-16.396 17.737-19.116 17.737-21.3 17.737-22.181 17.125-22.947 16.665-23.369 15.822-24.71 13.715-25.514 11.493-25.821L10.114-26.012C9.386-26.204 8.505-26.204 7.624-26.204H5.019C4.444-26.204 3.831-26.165 3.333-26.127L2.145-26.012C-4.559-25.361-3.639-22.832-3.869-19.078-3.869-17.699-4.137-16.894-3.218-16.894H-3.065C-.996-16.894 .652-16.818 2.797-16.818 4.98-16.741 4.712-17.086 5.057-19.155 5.44-21.3 6.091-21.53 7.355-21.53 9.233-21.53 9.577-19.882 9.233-18.158L9.156-17.776C8.696-16.626 7.585-16.396 6.896-16.166L5.9-15.86C5.632-15.783 5.325-15.668 5.019-15.592L4.176-15.4C3.295-15.209 2.337-14.864 1.533-14.634-1.877-13.753-3.601-10.612-3.601-6.627-3.601-1.915-3.793-1.111 0 0" fill="#2c8694"/>
<path transform="matrix(1,0,0,-1,153.2565,385.5187)" d="M0 0-1.111 .115C-1.111 .383-1.149 .613-1.149 .843V4.521C-1.149 5.516-1.034 6.398-1.034 7.394V8.811C-1.034 9.386-1.111 9.922-.881 15.899L-1.494 23.675C-.804 23.752 2.145 23.943 2.873 23.943 3.601 23.943 5.747 23.752 5.976 23.637L6.321 16.818V16.512C5.976 14.136 6.283 11.608 6.283 9.194 6.283 7.93 5.747 3.946 6.321 .574L6.283 .076C5.325 .076 .153 .23 0 0" fill="#2c8694"/>
<path transform="matrix(1,0,0,-1,186.7005,364.0273)" d="M0 0 .383-.727C1.226-2.337 1.494-4.214 1.494-7.853L-6.589-7.738C-6.589-6.168-7.049-3.065-8.926-3.065H-9.271C-11.455-3.065-11.493-6.666-11.569-10.305-11.608-14.06-11.608-17.852-9.041-17.852-7.547-17.852-7.087-15.86-6.934-15.554L1.609-15.63C1.647-17.737 1.034-19.806 .421-20.533-1.034-22.258-3.065-23.139-5.057-23.369L-6.13-23.483C-6.628-23.522-7.241-23.599-7.815-23.599H-9.386C-9.961-23.599-10.612-23.56-11.148-23.483L-12.374-23.33C-19.346-22.449-19.921-18.887-20.764-14.673-20.917-13.906-21.032-12.642-21.032-11.876V-9.615C-21.032-2.145-19.653 1.686-13.6 2.26L-11.953 2.414C-11.072 2.49-10.19 2.49-9.233 2.49-4.559 2.49-1.149 2.146 0 0" fill="#2c8694"/>
<path transform="matrix(1,0,0,-1,209.4568,362.07313)" d="M0 0 17.278 .574H18.005C18.312 .574 18.619 .536 18.772 .46 18.772 .268 18.772 .038 18.695-.307 18.58-2.107 18.657-4.521 18.504-5.938 17.469-5.747 16.627-5.785 15.592-5.785H13.945L12.91-5.823H11.952C11.684-5.823 11.34-5.708 10.65-5.785L10.535-9.961V-10.114L10.612-10.076 16.09-10.114C16.627-10.114 16.397-10.421 16.397-10.88 16.205-12.374 16.435-13.754 16.205-15.247L11.416-15.592H10.458C10.344-15.86 10.458-17.546 10.458-18.772 10.458-21.683 10.458-23.791 10.688-26.127L10.918-28.656C10.918-28.847 10.995-29.039 10.995-29.23L9.922-29.346C9.271-29.422 8.466-29.614 7.7-29.614H5.785C4.559-29.614 3.754-29.958 3.716-28.771L3.678-27.889C3.678-27.468 3.754-27.047 3.754-26.625 3.754-25.783 3.639-24.863 3.639-24.058V-20.994L3.524-15.822C3.524-15.439 3.486-14.979 3.486-14.519 3.486-13.907 3.409-13.37 3.409-12.796 3.409-12.527 3.409-12.183 2.95-5.747L.191-5.708C.115-3.793 .038-1.916 0 0" fill="#2c8694"/>
<path transform="matrix(1,0,0,-1,253.5516,363.26094)" d="M0 0C0-.537 .076-2.069 .076-3.524 .076-5.095-.038-5.67-.421-5.67L-1.801-5.708C-3.141-5.746-4.406-5.785-5.747-5.785H-8.313C-8.62-5.785-8.812-5.823-8.812-5.823H-9.041L-9.08-7.279-9.271-10.382H-9.08C-6.321-10.382-3.41-10.804-.575-10.804-.575-10.918-.307-11.723-.307-12.642-.307-13.868-.537-14.328-.575-15.324L-4.751-15.285C-5.632-15.285-5.708-15.247-6.244-15.209-6.474-15.247-6.704-15.247-6.896-15.247-8.16-15.247-9.041-15.477-9.807-15.477L-9.999-16.55C-9.999-18.389-10.344-21.108-10.382-22.947-9.271-23.139-8.658-23.139-7.241-23.139H-4.291C-3.946-23.139-3.448-23.101-2.912-23.101H3.601C4.29-23.101 5.018-23.063 5.708-23.063H7.24C7.126-24.633 6.972-26.51 6.742-28.694 5.516-28.694 3.793-28.847 1.915-28.847H1.111C-.537-28.847-2.567-29.115-4.559-29.115H-5.67C-7.969-29.115-10.458-28.809-13.408-28.809H-13.83C-15.171-28.809-16.588-28.962-18.121-28.962L-18.044-23.905C-18.006-22.411-17.776-20.419-17.776-18.925V-18.389C-17.776-18.005-17.699-17.584-17.699-17.163L-17.738-16.32V-15.86C-17.738-15.132-17.699-14.443-17.699-13.753V-13.562L-17.661-13.715-17.699-12.068C-17.738-10.344-17.508-7.126-17.546-5.555L-19.27-5.287C-19.5-5.287-19.806-5.363-20.036-5.363-20.036-4.329-20.151-4.405-20.151-3.295-20.151-2.184-20.074-1.992-20.074-.383-20.074 .191-20.113 .843-20.113 1.532H-16.895C-15.477 1.532-13.754 1.494-12.068 1.494-10.65 1.494-8.735 1.571-7.011 1.571H-6.819C-3.333 1.571-.728 1.456 .076 .996 .076 .651 0 .345 0 0" fill="#2c8694"/>
<path transform="matrix(1,0,0,-1,263.7802,361.80543)" d="M0 0 .919 .115 3.716 .23 6.59 .192C11.915 .115 15.899 0 16.971-2.682L17.201-3.256C17.431-3.869 17.393-4.597 17.508-5.21 17.584-5.478 17.661-6.359 17.661-7.279 17.661-8.313 17.584-9.385 17.316-9.654 16.627-10.267 15.286-9.769 13.524-9.769 11.953-9.769 9.693-10.075 8.773-9.845 8.62-8.696 8.39-7.585 8.39-6.474 8.39-5.401 8.275-4.75 6.36-4.75 4.405-4.75 4.635-6.015 4.635-6.819 4.635-8.39 5.249-9.462 6.36-9.884L7.202-10.113C11.915-11.378 15.669-11.646 16.894-13.83 18.312-16.396 17.738-19.116 17.738-21.3 17.738-22.181 17.124-22.947 16.665-23.369 15.822-24.71 13.715-25.514 11.493-25.821L10.114-26.012C9.386-26.204 8.505-26.204 7.624-26.204H5.019C4.444-26.204 3.831-26.165 3.333-26.127L2.146-26.012C-4.559-25.361-3.639-22.832-3.869-19.078-3.869-17.699-4.137-16.894-3.218-16.894H-3.065C-.996-16.894 .651-16.818 2.797-16.818 4.98-16.741 4.712-17.086 5.057-19.155 5.44-21.3 6.091-21.53 7.355-21.53 9.233-21.53 9.577-19.882 9.233-18.158L9.156-17.776C8.696-16.626 7.585-16.396 6.896-16.166L5.9-15.86C5.632-15.783 5.325-15.668 5.019-15.592L4.176-15.4C3.294-15.209 2.337-14.864 1.532-14.634-1.877-13.753-3.601-10.612-3.601-6.627-3.601-1.915-3.793-1.111 0 0" fill="#2c8694"/>
<path transform="matrix(1,0,0,-1,307.8372,362.4182)" d="M0 0V-7.126L-5.862-7.279V-7.777L-5.708-12.834V-13.523C-5.708-17.546-5.363-17.776-5.363-21.108V-22.488C-5.325-22.488-8.122-23.254-12.106-23.254-13.294-23.254-13.791-23.139-13.791-22.756-13.791-20.266-13.447-18.274-13.447-15.132V-10.458C-13.447-9.692-13.562-9.041-13.562-8.39V-8.083C-14.865-7.891-18.044-8.275-19.73-7.355-19.73-6.015-19.883-2.528-19.653-.881L-19.461-.268C-19.347-.076-18.925 .038-18.427 .038-12.374 .038-12.91-.153-7.547-.153-4.291-.153-3.755 0 0 0" fill="#2c8694"/>
<path transform="matrix(1,0,0,-1,314.8476,385.5187)" d="M0 0-1.111 .115C-1.111 .383-1.149 .613-1.149 .843V4.521C-1.149 5.516-1.034 6.398-1.034 7.394V8.811C-1.034 9.386-1.111 9.922-.881 15.899L-1.494 23.675C-.804 23.752 2.146 23.943 2.873 23.943 3.601 23.943 5.746 23.752 5.976 23.637L6.321 16.818V16.512C5.976 14.136 6.283 11.608 6.283 9.194 6.283 7.93 5.746 3.946 6.321 .574L6.283 .076C5.325 .076 .154 .23 0 0" fill="#2c8694"/>
<path transform="matrix(1,0,0,-1,333.045,352.34263)" d="M0 0 .115-1.073 .307-2.299 .958-5.325 1.226-6.551 1.456-7.777 1.609-8.773 1.877-9.999 2.107-11.301 2.375-12.527 2.49-13.102 2.529-13.523 2.796-14.788 3.065-16.013 3.793-22.296 6.398-8.811C7.202-8.849 6.857-9.079 9.003-9.079 10.65-9.079 11.952-9.118 13.102-9.003L13.063-9.73 7.279-30.226 6.474-31.337C5.134-31.337 3.295-31.375 2.26-31.375 .843-31.299-.804-31.299-.958-30.801L-1.034-30.724-1.341-29.575C-1.379-29.115-1.571-28.541-1.686-27.928L-1.839-27.238-2.107-26.242-2.375-24.71C-2.413-24.212-2.567-23.79-2.605-23.33L-2.873-21.952-3.18-20.496-3.371-19.27-3.946-16.358-4.252-14.788C-4.252-14.519-4.405-14.251-4.444-13.983L-4.597-13.179-4.712-12.642-5.019-11.416C-5.095-11.148-5.095-10.841-5.172-10.574L-5.478-9.424-5.785-8.198-6.244-6.666C-6.321-6.474-6.36-6.168-6.436-5.976L-6.666-5.287-7.049-4.214-7.968-1.264C-8.045-.996-8.16-.843-8.237-.651-7.279-.23-1.302-.537 0 0" fill="#2c8694"/>
<path transform="matrix(1,0,0,-1,360.9729,379.08283)" d="M0 0C.421 0 .766-.077 1.226-.038L1.839 0C2.03 0 2.26-.038 2.49-.038 3.487-.038 3.946 0 5.019 0 4.904 .23 4.865 .383 4.827 .537L4.521 1.532C4.405 1.877 4.291 2.145 4.252 2.452L4.138 2.72C4.099 2.95 3.984 3.103 3.946 3.333 2.26 7.892 1.571 9.96 1.456 9.654L.805 7.087-.574 0ZM13.217 16.473C13.217 15.324 13.102 13.791 13.102 13.37 13.102 13.179 13.179 12.872 13.179 12.642 13.179 12.451 13.14 12.297 13.026 12.221 13.064 12.182 13.026 12.144 13.064 12.144 12.374 12.068 10.382 11.876 9.501 11.876H8.773C8.62 11.876 8.466 11.799 8.313 11.799L12.336 .728C12.68 .038 12.796-.498 13.102-1.111L13.485-1.877C13.638-2.184 13.715-2.452 13.83-2.72L14.634-4.635C15.132-5.823 15.745-6.934 16.167-8.352 15.477-9.118 11.953-9.577 8.045-10.305 7.892-10.152 7.738-9.96 7.662-9.769L7.355-9.156 5.785-4.521C5.632-4.521 5.516-4.559 5.325-4.559L-1.034-4.712C-1.302-4.904-.958-5.248-2.643-10.841-3.984-10.344-8.313-10.114-9.079-9.463-9.079-8.696-8.773-7.585-8.543-6.627L-8.466-5.938C-8.313-5.478-8.237-4.942-8.121-4.329L-7.777-2.567C-7.7-2.26-7.7-1.915-7.585-1.571L-5.746 7.662-5.632 8.735-5.44 9.577-5.363 10.535-10.497 10.344-10.343 13.37C-10.19 14.519-10.076 16.166-9.654 16.933L12.987 17.929C13.14 17.929 13.217 17.277 13.217 16.473" fill="#2c8694"/>
<path transform="matrix(1,0,0,-1,388.441,380.2705)" d="M0 0V-.69L-.191-4.176-.115-6.627H.421C.843-6.627 1.265-6.704 1.839-6.704 2.146-6.627 2.49-6.551 2.835-6.551H4.329L5.134-6.589H6.206C6.59-6.589 9.309-6.704 11.033-6.704L10.995-12.949C10.305-12.949 8.045-13.025 7.777-13.025H6.666C6.36-13.025 5.976-13.063 5.363-13.063H2.184L-4.367-12.719C-5.095-12.68-5.938-12.833-6.627-12.833-6.896-12.833-7.087-12.795-7.355-12.795-7.662-12.795-7.93-12.91-8.121-12.91-8.237-12.91-8.313-12.833-8.39-12.757-8.007-11.416-7.968-9.118-7.968-7.317-7.968-6.359-8.007-5.631-8.007-4.674V3.065C-8.007 3.333-7.968 3.524-7.968 3.793V4.061C-7.968 4.674-8.121 6.091-8.121 6.628V10.918C-8.121 12.183-8.083 13.524-8.083 14.902V15.86C-8.083 16.473-8.045 17.278-8.045 17.929V18.58C-8.083 18.58-8.083 18.619-8.083 18.619-8.083 18.733-7.547 18.772-6.704 18.772-4.482 18.772-.919 18.465-.076 18.465V4.406C-.191 2.988 .191 1.456 0 0" fill="#2c8694"/>
</g>
</g>
</svg>
