<svg xmlns="http://www.w3.org/2000/svg" xmlns:xlink="http://www.w3.org/1999/xlink" xmlns:inkscape="http://www.inkscape.org/namespaces/inkscape" version="1.1" width="925.277" height="317.106" viewBox="0 0 925.277 317.106">
<defs>
<clipPath id="clip_1">
<path transform="matrix(1,0,0,-1,0,317.106)" d="M0 317.106H925.277V0H0Z"/>
</clipPath>
</defs>
<g inkscape:groupmode="layer" inkscape:label="Layer 1">
<g clip-path="url(#clip_1)">
<path transform="matrix(1,0,0,-1,98.8776,257.6843)" d="M0 0 1.193-.032C3.516-.094 5.869-.785 6.717-2.542L6.999-3.139C7.533-4.739 7.658-6.434 7.658-8.286 7.658-9.164 7.187-9.384 6.402-9.384 4.237-9.384-.502-8.913-.502-8.662L-.628-5.9C-.659-5.084-.941-4.363-2.197-4.363H-3.17C-4.237-4.174-5.053-4.613-5.774-5.43L-6.246-6.402C-7.03-8.411-7.062-10.953-7.062-13.244-7.062-13.182-7.062-13.118-7.093-13.056-6.904-16.037-6.904-17.23-4.802-17.23L-3.389-17.011C-2.04-16.634-1.945-16.665-1.945-15.567-2.479-15.567-2.918-15.63-3.483-15.63-3.861-15.63-4.142-15.567-4.299-15.441V-13.087C-4.299-12.617-4.269-12.209-4.174-11.832-3.829-11.769-3.483-11.769-3.106-11.769H-.188C2.197-11.769 5.43-11.644 7.47-11.644L7.783-22.503C7.783-22.66 7.753-22.817 7.753-22.942 5.053-22.942 2.825-23.161 .22-23.256 .22-22.911 .188-22.503 .188-22.157L.095-19.835C.095-19.458 .032-19.05 .032-18.705-.094-19.866-1.569-21.656-3.013-21.656H-3.641C-8.003-21.656-10.325-21.656-13.84-17.293L-14.154-16.791C-14.625-15.661-14.938-13.746-14.938-11.675V-10.733C-14.938-10.325-14.938-9.949-14.688-6.654-14.625-6.151-14.468-5.618-14.28-5.084L-14.029-4.394C-13.056-.534-6.465 .032-2.856 .032H-1.601C-1.067 .032-.44 0 0 0" fill="#2c8694"/>
<path transform="matrix(1,0,0,-1,124.3605,273.5333)" d="M0 0H1.004C3.233 0 3.672 1.412 3.672 2.385L3.421 5.022 3.296 7.971C3.264 8.787 2.825 10.419 1.412 10.514L-.22 10.608C-2.103 10.576-1.82 6.716-1.82 4.802V4.425C-1.82 2.259-1.945 0 0 0M5.649 15.315 5.931 15.253C7.407 14.939 8.506 13.307 8.944 11.894L9.102 11.392C9.195 11.11 9.227 10.859 9.259 10.514L9.603 5.43V4.519C9.603 4.3 9.635 3.986 9.635 3.703 9.635 2.887 9.54 2.071 9.54 1.255V.627C9.07-4.017 5.273-4.959 .063-4.959-6.497-4.959-7.658-2.888-8.85-.848L-9.039-.377C-9.447 .345-9.603 2.071-9.635 2.856L-9.667 3.797V4.708C-9.667 6.151-9.572 7.595-8.914 11.926L-8.599 12.774C-8.349 13.432-7.69 14.248-6.277 14.688L-5.178 15.033C-2.981 15.378-.721 15.723 2.072 15.723 4.017 15.723 4.205 15.629 5.649 15.315" fill="#2c8694"/>
<path transform="matrix(1,0,0,-1,151.5702,273.5333)" d="M0 0H1.004C3.233 0 3.672 1.412 3.672 2.385L3.421 5.022 3.295 7.971C3.264 8.787 2.825 10.419 1.412 10.514L-.22 10.608C-2.103 10.576-1.82 6.716-1.82 4.802V4.425C-1.82 2.259-1.945 0 0 0M5.649 15.315 5.931 15.253C7.407 14.939 8.506 13.307 8.944 11.894L9.102 11.392C9.195 11.11 9.227 10.859 9.259 10.514L9.603 5.43V4.519C9.603 4.3 9.635 3.986 9.635 3.703 9.635 2.887 9.54 2.071 9.54 1.255V.627C9.07-4.017 5.273-4.959 .063-4.959-6.497-4.959-7.658-2.888-8.85-.848L-9.039-.377C-9.447 .345-9.603 2.071-9.635 2.856L-9.667 3.797V4.708C-9.667 6.151-9.572 7.595-8.914 11.926L-8.599 12.774C-8.349 13.432-7.69 14.248-6.277 14.688L-5.178 15.033C-2.981 15.378-.723 15.723 2.072 15.723 4.017 15.723 4.205 15.629 5.649 15.315" fill="#2c8694"/>
<path transform="matrix(1,0,0,-1,176.6134,267.31929)" d="M0 0V-.502C0-2.103 .062-3.515 .094-4.896L.125-6.402H.188C.282-6.402 .313-6.434 .376-6.434 2.542-6.528 4.017-6.277 4.394-6.057L4.613-5.838C4.99-5.461 4.927-4.959 5.022-4.519 5.053-1.162 4.958-.188 4.927 .534 4.864 2.197 4.958 3.547 4.267 3.954L3.358 4.394C3.044 4.456 2.479 4.645 2.04 4.645H1.537C1.098 4.645 .47 4.551-.126 4.456V3.86ZM1.224-10.922C-.659-10.953-3.986-11.33-7.47-10.891-7.47-10.514-7.501-10.012-7.501-9.415V-6.936C-7.501-6.246-7.47-5.555-7.47-4.833L-7.533-1.475C-7.533-1.004-7.47-.534-7.47-.063V.157C-7.47 1.161-7.438 1.789-7.438 2.511V4.017C-7.438 5.116-7.564 5.774-7.564 6.622V8.85C-5.273 8.85-2.323 9.007-.314 9.07L.596 9.101H1.193C3.389 9.101 7.595 8.693 9.477 6.465L10.011 5.838C10.2 5.586 10.325 5.398 10.483 5.147L10.764 4.488C10.828 4.205 10.984 3.954 11.016 3.609L11.236 1.538C11.236 .941 11.298 .282 11.298-.314V-.785C11.298-1.506 11.361-2.134 11.361-2.793 11.361-3.233 11.298-3.672 11.298-4.08V-4.488C11.298-5.743 11.141-7.093 10.608-7.595L10.231-7.94C9.667-8.474 5.492-10.859 1.82-10.859 1.601-10.891 1.443-10.922 1.224-10.922" fill="#2c8694"/>
<path transform="matrix(1,0,0,-1,232.0676,258.46879)" d="M0 0C.062-.314 .125-1.193 .125-2.228V-2.668C.125-4.519 .282-6.716 .313-8.537L.345-11.927V-12.115L.313-13.244 .345-14.406 .376-19.364C.376-20.274 .502-21.373 .47-22.189L.44-22.911V-23.068C.44-23.287 .47-23.539 .47-23.727V-24.072C-.879-24.417-3.076-24.574-4.802-24.7-4.771-23.821-4.896-22.911-4.865-22.032L-4.833-21.09C-4.833-20.871-4.896-20.682-4.896-20.463L-4.865-19.772V-19.647L-4.928-16.257-4.896-15.661C-4.865-14.97-4.96-14.217-4.96-13.244V-9.949L-5.461-10.765C-5.586-11.047-5.744-11.518-5.869-11.832L-6.591-13.715C-6.654-13.872-6.78-13.998-6.81-14.186L-6.999-14.72-7.25-15.253-8.317-17.858C-8.38-17.983-8.411-18.141-8.474-18.235-9.322-18.297-10.702-18.36-11.424-18.454L-11.927-16.697-12.711-13.998C-12.774-13.841-12.806-13.59-12.868-13.433L-14.06-9.353C-14.123-9.259-14.155-9.102-14.187-8.976V-14.186C-14.187-15.378-14.28-16.697-14.28-17.921-15.787-18.329-16.603-18.517-18.642-18.517H-19.396C-19.898-18.517-19.993-18.391-19.993-18.109-19.993-17.921-19.961-17.733-19.961-17.45V-15.473C-19.961-11.581-19.993-11.33-19.961-10.577L-19.866-8.756C-19.804-7.815-19.741-6.999-19.741-6.152V-5.116C-19.741-4.959-19.71-4.802-19.71-4.645L-19.616-3.264C-19.521-1.726-19.396-.345-19.428 .533-17.544 .722-15.159 .816-12.303 .879L-12.052 .125C-12.02 0-11.958-.188-11.958-.282L-11.299-2.417-11.236-2.794-10.828-4.017-10.514-5.241-9.667-8.129-9.541-8.6-9.353-9.259-8.85-7.815-8.474-6.716C-8.38-6.56-8.317-6.403-8.254-6.214L-7.564-4.457C-7.376-3.955-7.187-3.515-6.968-3.013L-6.748-2.542-5.994-.628C-5.806 .094-4.175 .125-2.856 .125-2.166 .125-.816 .094 0 0" fill="#2c8694"/>
<path transform="matrix(1,0,0,-1,248.4485,259.25389)" d="M0 0C0-.125 .032-.219 .032-.345 .032-.91-.157-1.506-.157-2.071L-.345-14.091C-.345-14.782 .188-14.939 .566-14.939 2.355-14.939 3.201-14.845 3.201-14.279 3.201-13.966 3.233-13.432 3.201-12.773L3.139-11.361C3.108-10.859 3.076-10.388 3.076-9.823V-9.321C3.076-8.819 3.013-8.285 3.013-7.783L2.983-5.994C2.983-5.523 2.919-4.99 2.919-4.456V-2.259C2.919-1.789 2.888-1.443 2.888-.941 2.888-.063 2.794 .722 2.794 .942L8.977 .879C8.977-2.071 8.789-3.672 8.85-5.806L8.882-6.716V-8.379L8.914-10.137 8.945-10.89 8.914-11.644 8.945-12.899 8.914-14.06C8.82-16.978 6.34-19.207 2.763-19.395L.942-19.489C.534-19.521 .158-19.552-.188-19.552H-1.537C-1.914-19.552-2.29-19.521-2.635-19.489L-3.671-19.395C-5.24-19.238-7.155-18.046-7.783-16.257-7.877-15.786-7.908-15.535-7.94-15.096-7.971-15.001-7.971-14.876-7.971-14.374-7.971-13.652-8.096-12.773-8.191-10.764V-4.896C-8.191-4.394-8.16-3.86-8.16-3.326V-1.224C-8.16-.973-8.128-.785-8.128-.533V.377C-5.68 .314-1.945 0 0 0" fill="#2c8694"/>
<path transform="matrix(1,0,0,-1,268.7217,258.62599)" d="M0 0 .753 .094 3.044 .188 5.398 .157C9.76 .094 13.024 0 13.904-2.197L14.092-2.667C14.28-3.17 14.248-3.766 14.343-4.268 14.405-4.488 14.468-5.21 14.468-5.963 14.468-6.81 14.405-7.689 14.185-7.909 13.621-8.411 12.523-8.003 11.079-8.003 9.792-8.003 7.941-8.254 7.187-8.065 7.062-7.124 6.873-6.214 6.873-5.304 6.873-4.425 6.779-3.892 5.21-3.892 3.609-3.892 3.797-4.927 3.797-5.586 3.797-6.873 4.3-7.752 5.21-8.097L5.901-8.285C9.76-9.321 12.836-9.541 13.84-11.33 15.001-13.432 14.531-15.661 14.531-17.45 14.531-18.172 14.029-18.799 13.652-19.144 12.962-20.243 11.236-20.902 9.415-21.153L8.286-21.31C7.69-21.467 6.967-21.467 6.246-21.467H4.112C3.641-21.467 3.138-21.435 2.731-21.404L1.757-21.31C-3.734-20.776-2.981-18.705-3.17-15.629-3.17-14.499-3.389-13.84-2.636-13.84H-2.51C-.816-13.84 .533-13.778 2.292-13.778 4.08-13.715 3.861-13.997 4.142-15.692 4.457-17.45 4.99-17.638 6.026-17.638 7.563-17.638 7.846-16.289 7.563-14.876L7.501-14.562C7.125-13.621 6.214-13.432 5.649-13.244L4.833-12.993C4.613-12.93 4.362-12.836 4.112-12.774L3.421-12.616C2.7-12.46 1.915-12.177 1.256-11.988-1.537-11.267-2.95-8.693-2.95-5.43-2.95-1.569-3.106-.91 0 0" fill="#2c8694"/>
<path transform="matrix(1,0,0,-1,292.5104,278.05268)" d="M0 0-.91 .094C-.91 .314-.941 .502-.941 .69V3.703C-.941 4.519-.848 5.241-.848 6.057V7.218C-.848 7.689-.91 8.129-.721 13.024L-1.224 19.396C-.659 19.458 1.757 19.615 2.353 19.615 2.95 19.615 4.708 19.458 4.896 19.364L5.178 13.777V13.527C4.896 11.58 5.147 9.509 5.147 7.532 5.147 6.496 4.708 3.233 5.178 .471L5.147 .063C4.362 .063 .125 .188 0 0" fill="#2c8694"/>
<path transform="matrix(1,0,0,-1,323.0464,260.44639)" d="M0 0 .314-.596C1.004-1.914 1.224-3.452 1.224-6.434L-5.398-6.339C-5.398-5.053-5.774-2.511-7.312-2.511H-7.595C-9.384-2.511-9.415-5.461-9.477-8.442-9.509-11.518-9.509-14.625-7.407-14.625-6.182-14.625-5.806-12.993-5.68-12.742L1.319-12.805C1.35-14.531 .848-16.226 .346-16.822-.846-18.234-2.51-18.956-4.142-19.144L-5.022-19.238C-5.428-19.27-5.931-19.333-6.402-19.333H-7.688C-8.16-19.333-8.693-19.301-9.132-19.238L-10.137-19.113C-15.849-18.391-16.319-15.473-17.01-12.02-17.135-11.392-17.23-10.356-17.23-9.729V-7.877C-17.23-1.757-16.099 1.381-11.141 1.852L-9.792 1.978C-9.069 2.04-8.348 2.04-7.563 2.04-3.734 2.04-.941 1.758 0 0" fill="#2c8694"/>
<path transform="matrix(1,0,0,-1,337.5135,270.5835)" d="M0 0C.911 .188 1.099-.157 1.412-.157-.47-9.509-1.318-9.447-1.349-11.172-1.663-11.204-4.111-11.298-5.21-11.644L-6.622-11.769C-5.555-4.99-4.111-.094-3.358-.157-2.134-.157-1.506-.282 0 0" fill="#2c8694"/>
<path transform="matrix(1,0,0,-1,377.308,274.067)" d="M0 0C0 0-.032 0-.032-.032-.157-2.762-2.197-4.425-3.891-4.488L-4.677-4.582C-8.286-4.394-15.033-4.425-15.316 .753L-15.378 1.852C-15.409 2.479-15.378 3.327-15.409 4.049-15.409 5.492-15.19 6.277-15.284 9.792-15.284 10.137-15.221 10.514-15.221 10.828L-14.876 13.809C-14.312 16.697-8.944 18.768-4.331 18.266-3.201 18.266 .345 17.983 1.789 16.634L1.883 16.571C2.072 16.32 2.605 15.253 2.605 14.562V14.406L2.668 13.621C2.7 13.276 2.731 10.891 2.793 9.415 1.727 9.039 0 9.133-1.412 9.133-2.573 9.133-4.487 9.353-4.299 9.823-3.641 13.684-4.425 13.998-5.241 13.998-5.774 13.998-5.493 13.966-5.994 13.904L-6.465 13.746C-7.155 13.527-7.532 13.244-7.532 12.585L-8.411 3.201C-8.411 1.663-7.94 .314-6.057 .22-4.99 .282-3.986 .376-3.17 1.036-2.856 1.601-2.605 2.417-3.044 3.389L-3.358 3.452C-4.017 3.389-4.77 3.358-5.461 3.358-5.774 3.358-6.026 3.389-6.246 3.452V4.111C-6.246 4.865-5.994 6.591-5.586 7.344L-.816 7.407C-.251 7.376 .283 7.438 2.417 7.344 3.013 7.344 3.797 7.407 4.332 7.407 4.645 7.407 4.865 7.407 5.116 7.376L5.085 3.358V3.201C5.085 2.825 4.928 1.663 4.928 1.098V.188C4.928-.314 4.802-.816 4.802-1.412V-1.601L4.677-4.363C4.582-6.402 3.924-6.654 1.193-6.654 .911-6.654 .659-6.622 .408-6.622 .063-6.622-.251-6.654-.47-6.654-.47-6.371-.47-5.649 .126-.848 .126-.376 .095 0 0 0" fill="#2c8694"/>
<path transform="matrix(1,0,0,-1,399.5897,273.5333)" d="M0 0H1.004C3.233 0 3.672 1.412 3.672 2.385L3.421 5.022 3.295 7.971C3.264 8.787 2.825 10.419 1.412 10.514L-.22 10.608C-2.103 10.576-1.82 6.716-1.82 4.802V4.425C-1.82 2.259-1.945 0 0 0M5.649 15.315 5.931 15.253C7.407 14.939 8.506 13.307 8.944 11.894L9.102 11.392C9.195 11.11 9.227 10.859 9.259 10.514L9.603 5.43V4.519C9.603 4.3 9.635 3.986 9.635 3.703 9.635 2.887 9.54 2.071 9.54 1.255V.627C9.07-4.017 5.273-4.959 .063-4.959-6.497-4.959-7.658-2.888-8.85-.848L-9.039-.377C-9.447 .345-9.603 2.071-9.635 2.856L-9.667 3.797V4.708C-9.667 6.151-9.572 7.595-8.914 11.926L-8.599 12.774C-8.349 13.432-7.69 14.248-6.277 14.688L-5.178 15.033C-2.981 15.378-.723 15.723 2.072 15.723 4.017 15.723 4.205 15.629 5.649 15.315" fill="#2c8694"/>
<path transform="matrix(1,0,0,-1,426.7982,273.5333)" d="M0 0H1.004C3.233 0 3.672 1.412 3.672 2.385L3.421 5.022 3.295 7.971C3.264 8.787 2.825 10.419 1.412 10.514L-.22 10.608C-2.103 10.576-1.82 6.716-1.82 4.802V4.425C-1.82 2.259-1.945 0 0 0M5.649 15.315 5.931 15.253C7.407 14.939 8.506 13.307 8.944 11.894L9.102 11.392C9.195 11.11 9.227 10.859 9.259 10.514L9.603 5.43V4.519C9.603 4.3 9.635 3.986 9.635 3.703 9.635 2.887 9.54 2.071 9.54 1.255V.627C9.07-4.017 5.273-4.959 .063-4.959-6.497-4.959-7.658-2.888-8.85-.848L-9.039-.377C-9.447 .345-9.603 2.071-9.635 2.856L-9.667 3.797V4.708C-9.667 6.151-9.572 7.595-8.914 11.926L-8.599 12.774C-8.349 13.432-7.69 14.248-6.277 14.688L-5.178 15.033C-2.981 15.378-.723 15.723 2.072 15.723 4.017 15.723 4.205 15.629 5.649 15.315" fill="#2c8694"/>
<path transform="matrix(1,0,0,-1,451.8432,267.31929)" d="M0 0V-.502C0-2.103 .062-3.515 .094-4.896L.125-6.402H.188C.282-6.402 .313-6.434 .376-6.434 2.542-6.528 4.017-6.277 4.394-6.057L4.613-5.838C4.99-5.461 4.927-4.959 5.022-4.519 5.053-1.162 4.958-.188 4.927 .534 4.864 2.197 4.958 3.547 4.267 3.954L3.358 4.394C3.044 4.456 2.479 4.645 2.04 4.645H1.537C1.098 4.645 .47 4.551-.126 4.456V3.86ZM1.224-10.922C-.659-10.953-3.986-11.33-7.47-10.891-7.47-10.514-7.502-10.012-7.502-9.415V-6.936C-7.502-6.246-7.47-5.555-7.47-4.833L-7.533-1.475C-7.533-1.004-7.47-.534-7.47-.063V.157C-7.47 1.161-7.439 1.789-7.439 2.511V4.017C-7.439 5.116-7.565 5.774-7.565 6.622V8.85C-5.273 8.85-2.323 9.007-.314 9.07L.596 9.101H1.193C3.389 9.101 7.595 8.693 9.478 6.465L10.011 5.838C10.2 5.586 10.325 5.398 10.481 5.147L10.764 4.488C10.828 4.205 10.984 3.954 11.016 3.609L11.236 1.538C11.236 .941 11.298 .282 11.298-.314V-.785C11.298-1.506 11.361-2.134 11.361-2.793 11.361-3.233 11.298-3.672 11.298-4.08V-4.488C11.298-5.743 11.141-7.093 10.608-7.595L10.231-7.94C9.667-8.474 5.492-10.859 1.82-10.859 1.601-10.891 1.444-10.922 1.224-10.922" fill="#2c8694"/>
<path transform="matrix(1,0,0,-1,498.3521,255.23659)" d="M0 0C5.838 0 6.717-4.142 6.685-6.527L6.654-8.85H-.47C-.533-7.721-.565-7.061-.565-6.308-.565-4.77-1.726-4.708-2.762-4.708-3.295-4.676-3.389-4.77-3.861-5.053L-3.986-5.178C-4.457-5.649-4.457-6.277-4.55-7.155V-8.348C-4.237-11.047-4.331-11.549-4.331-12.993L-4.142-14.468C-3.986-15.786-3.703-16.79-2.448-16.79-.69-16.79-.188-15.598-.188-13.338 .942-13.338 5.649-13.275 6.81-13.275V-15.127C6.81-15.974 6.873-16.759 6.56-17.764L6.434-18.172C6.214-18.611 5.964-19.019 5.618-19.458L5.148-19.835C3.421-21.215-.251-21.31-2.385-21.31-3.734-21.31-5.272-21.31-6.496-20.839L-7.343-20.525C-7.815-20.368-8.348-20.086-8.693-19.803L-8.85-19.678-9.352-19.176-9.729-18.674C-10.011-18.297-10.325-17.732-10.419-17.292L-10.828-16.226C-10.921-15.598-11.079-15.001-11.079-14.562-11.079-14.185-11.172-13.777-11.204-13.369L-11.267-11.989C-11.267-11.8-11.329-11.58-11.329-11.361V-10.922C-11.329-4.613-10.921-1.945-8.504-1.004-6.684-.219-4.237 .283 0 0" fill="#2c8694"/>
<path transform="matrix(1,0,0,-1,522.4227,270.48939)" d="M0 0-.063 .314-1.632 11.927-1.914 9.322-3.516 1.381-3.672-.157ZM.502-6.277V-6.026H.533V-5.618L.408-3.578C.095-3.609-.251-3.64-.565-3.64H-1.569C-2.134-3.64-3.296-3.672-3.797-3.797L-3.923-6.151C-4.174-6.402-4.52-6.496-6.026-6.496-6.434-6.434-6.842-6.434-7.218-6.371L-9.823-6.277-9.572-4.08-9.322-2.887-9.039-.753-8.756 .628-8.411 2.511-8.317 3.17-7.846 5.21V5.085L-7.69 6.089-7.626 6.654-7.343 8.38-6.937 9.761C-6.779 10.106-6.654 10.545-6.529 10.922-6.057 12.46-5.994 12.837-5.743 13.244H-5.869C-6.842 13.244-7.783 13.182-8.976 13.119L-11.047 13.025C-11.33 13.025-11.455 13.119-11.455 13.715L-11.172 17.136C-11.142 17.419-11.11 17.858-10.828 17.858-10.514 17.764-10.138 17.701-9.76 17.733L8.568 18.58 11.016 18.737C11.016 18.485 11.047 17.858 11.047 17.105 11.047 15.63 10.859 13.652 9.76 13.401L8.411 13.213 4.896 12.962 7.124-5.618C7.124-5.932 6.089-5.743 .502-6.277" fill="#2c8694"/>
<path transform="matrix(1,0,0,-1,545.5204,259.25389)" d="M0 0C0-.125 .032-.219 .032-.345 .032-.91-.157-1.506-.157-2.071L-.345-14.091C-.345-14.782 .188-14.939 .566-14.939 2.355-14.939 3.201-14.845 3.201-14.279 3.201-13.966 3.233-13.432 3.201-12.773L3.139-11.361C3.108-10.859 3.076-10.388 3.076-9.823V-9.321C3.076-8.819 3.013-8.285 3.013-7.783L2.982-5.994C2.982-5.523 2.919-4.99 2.919-4.456V-2.259C2.919-1.789 2.888-1.443 2.888-.941 2.888-.063 2.793 .722 2.793 .942L8.977 .879C8.977-2.071 8.789-3.672 8.85-5.806L8.882-6.716V-8.379L8.914-10.137 8.945-10.89 8.914-11.644 8.945-12.899 8.914-14.06C8.819-16.978 6.34-19.207 2.763-19.395L.942-19.489C.534-19.521 .158-19.552-.188-19.552H-1.537C-1.914-19.552-2.29-19.521-2.635-19.489L-3.671-19.395C-5.241-19.238-7.155-18.046-7.783-16.257-7.877-15.786-7.908-15.535-7.94-15.096-7.971-15.001-7.971-14.876-7.971-14.374-7.971-13.652-8.096-12.773-8.191-10.764V-4.896C-8.191-4.394-8.16-3.86-8.16-3.326V-1.224C-8.16-.973-8.128-.785-8.128-.533V.377C-5.68 .314-1.945 0 0 0" fill="#2c8694"/>
<path transform="matrix(1,0,0,-1,565.7936,258.62599)" d="M0 0 .753 .094 3.044 .188 5.398 .157C9.761 .094 13.024 0 13.904-2.197L14.092-2.667C14.28-3.17 14.248-3.766 14.343-4.268 14.405-4.488 14.468-5.21 14.468-5.963 14.468-6.81 14.405-7.689 14.185-7.909 13.621-8.411 12.523-8.003 11.079-8.003 9.792-8.003 7.941-8.254 7.187-8.065 7.062-7.124 6.873-6.214 6.873-5.304 6.873-4.425 6.779-3.892 5.21-3.892 3.609-3.892 3.797-4.927 3.797-5.586 3.797-6.873 4.3-7.752 5.21-8.097L5.901-8.285C9.761-9.321 12.836-9.541 13.84-11.33 15.001-13.432 14.531-15.661 14.531-17.45 14.531-18.172 14.029-18.799 13.652-19.144 12.962-20.243 11.236-20.902 9.415-21.153L8.286-21.31C7.69-21.467 6.967-21.467 6.246-21.467H4.112C3.641-21.467 3.138-21.435 2.73-21.404L1.757-21.31C-3.734-20.776-2.981-18.705-3.17-15.629-3.17-14.499-3.389-13.84-2.636-13.84H-2.51C-.816-13.84 .533-13.778 2.292-13.778 4.08-13.715 3.861-13.997 4.142-15.692 4.457-17.45 4.99-17.638 6.026-17.638 7.563-17.638 7.846-16.289 7.563-14.876L7.501-14.562C7.125-13.621 6.214-13.432 5.649-13.244L4.833-12.993C4.613-12.93 4.362-12.836 4.112-12.774L3.421-12.616C2.7-12.46 1.915-12.177 1.256-11.988-1.537-11.267-2.95-8.693-2.95-5.43-2.95-1.569-3.106-.91 0 0" fill="#2c8694"/>
<path transform="matrix(1,0,0,-1,588.17,272.9686)" d="M0 0C0 .157 .032 .282 .032 .376V1.13C.032 1.538 .095 2.134 .157 2.605L.251 9.949V10.357L.283 10.733 .22 16.289H-.063C-.659 16.289-3.766 16.163-4.582 16.163-4.99 16.163-5.085 16.289-5.085 16.508-5.085 16.697-4.99 16.979-4.99 17.23V19.646C-4.99 21.624-4.802 21.059-3.734 21.216H-2.448C11.392 21.216 12.868 20.996 13.496 20.934L13.84 20.902V20.337C13.84 19.05 13.652 17.732 13.747 16.414 12.178 16.383 8.599 16.351 7.753 16.257L7.47 11.832 7.69 11.769H8.191L11.55 11.644C11.8 11.644 12.052 11.581 12.303 11.581 12.303 10.733 12.585 8.976 12.335 7.595 10.766 7.689 9.415 7.689 8.85 7.689L6.999 7.532C6.937 6.873 6.779 5.618 6.685 4.174L11.77 3.955C12.083 3.955 13.339 3.986 14.155 3.892 14.155 2.793 14.5 1.538 14.248 .063L.315-.408C.063-.408 0-.188 0 0" fill="#2c8694"/>
<path transform="matrix(1,0,0,-1,614.7822,270.5835)" d="M0 0C.911 .188 1.099-.157 1.412-.157-.47-9.509-1.318-9.447-1.349-11.172-1.663-11.204-4.111-11.298-5.21-11.644L-6.622-11.769C-5.555-4.99-4.111-.094-3.358-.157-2.134-.157-1.506-.282 0 0" fill="#2c8694"/>
<path transform="matrix(1,0,0,-1,654.5767,274.067)" d="M0 0C0 0-.032 0-.032-.032-.157-2.762-2.197-4.425-3.891-4.488L-4.677-4.582C-8.286-4.394-15.033-4.425-15.316 .753L-15.378 1.852C-15.409 2.479-15.378 3.327-15.409 4.049-15.409 5.492-15.19 6.277-15.284 9.792-15.284 10.137-15.221 10.514-15.221 10.828L-14.876 13.809C-14.312 16.697-8.944 18.768-4.331 18.266-3.201 18.266 .345 17.983 1.789 16.634L1.883 16.571C2.072 16.32 2.605 15.253 2.605 14.562V14.406L2.668 13.621C2.7 13.276 2.731 10.891 2.793 9.415 1.727 9.039 0 9.133-1.412 9.133-2.573 9.133-4.488 9.353-4.299 9.823-3.641 13.684-4.425 13.998-5.241 13.998-5.774 13.998-5.492 13.966-5.994 13.904L-6.465 13.746C-7.155 13.527-7.532 13.244-7.532 12.585L-8.411 3.201C-8.411 1.663-7.94 .314-6.057 .22-4.99 .282-3.986 .376-3.17 1.036-2.856 1.601-2.605 2.417-3.044 3.389L-3.358 3.452C-4.017 3.389-4.77 3.358-5.461 3.358-5.774 3.358-6.026 3.389-6.246 3.452V4.111C-6.246 4.865-5.994 6.591-5.586 7.344L-.816 7.407C-.251 7.376 .283 7.438 2.417 7.344 3.013 7.344 3.797 7.407 4.332 7.407 4.645 7.407 4.865 7.407 5.116 7.376L5.085 3.358V3.201C5.085 2.825 4.928 1.663 4.928 1.098V.188C4.928-.314 4.802-.816 4.802-1.412V-1.601L4.677-4.363C4.582-6.402 3.924-6.654 1.193-6.654 .911-6.654 .659-6.622 .408-6.622 .063-6.622-.251-6.654-.471-6.654-.471-6.371-.471-5.649 .126-.848 .126-.376 .095 0 0 0" fill="#2c8694"/>
<path transform="matrix(1,0,0,-1,676.8585,273.5333)" d="M0 0H1.004C3.233 0 3.672 1.412 3.672 2.385L3.421 5.022 3.296 7.971C3.264 8.787 2.825 10.419 1.412 10.514L-.22 10.608C-2.103 10.576-1.82 6.716-1.82 4.802V4.425C-1.82 2.259-1.945 0 0 0M5.649 15.315 5.931 15.253C7.407 14.939 8.506 13.307 8.944 11.894L9.102 11.392C9.195 11.11 9.227 10.859 9.258 10.514L9.603 5.43V4.519C9.603 4.3 9.635 3.986 9.635 3.703 9.635 2.887 9.54 2.071 9.54 1.255V.627C9.07-4.017 5.273-4.959 .063-4.959-6.497-4.959-7.658-2.888-8.851-.848L-9.039-.377C-9.447 .345-9.603 2.071-9.635 2.856L-9.667 3.797V4.708C-9.667 6.151-9.572 7.595-8.914 11.926L-8.599 12.774C-8.349 13.432-7.69 14.248-6.277 14.688L-5.178 15.033C-2.981 15.378-.721 15.723 2.072 15.723 4.017 15.723 4.205 15.629 5.649 15.315" fill="#2c8694"/>
<path transform="matrix(1,0,0,-1,704.0681,273.5333)" d="M0 0H1.004C3.233 0 3.672 1.412 3.672 2.385L3.421 5.022 3.295 7.971C3.264 8.787 2.825 10.419 1.412 10.514L-.22 10.608C-2.103 10.576-1.82 6.716-1.82 4.802V4.425C-1.82 2.259-1.945 0 0 0M5.649 15.315 5.931 15.253C7.407 14.939 8.506 13.307 8.944 11.894L9.102 11.392C9.195 11.11 9.227 10.859 9.259 10.514L9.603 5.43V4.519C9.603 4.3 9.635 3.986 9.635 3.703 9.635 2.887 9.54 2.071 9.54 1.255V.627C9.07-4.017 5.273-4.959 .063-4.959-6.497-4.959-7.658-2.888-8.85-.848L-9.039-.377C-9.447 .345-9.603 2.071-9.635 2.856L-9.667 3.797V4.708C-9.667 6.151-9.572 7.595-8.914 11.926L-8.599 12.774C-8.349 13.432-7.69 14.248-6.277 14.688L-5.178 15.033C-2.981 15.378-.723 15.723 2.072 15.723 4.017 15.723 4.205 15.629 5.649 15.315" fill="#2c8694"/>
<path transform="matrix(1,0,0,-1,729.1114,267.31929)" d="M0 0V-.502C0-2.103 .062-3.515 .094-4.896L.125-6.402H.188C.282-6.402 .313-6.434 .376-6.434 2.542-6.528 4.017-6.277 4.394-6.057L4.614-5.838C4.99-5.461 4.927-4.959 5.022-4.519 5.053-1.162 4.958-.188 4.927 .534 4.864 2.197 4.958 3.547 4.267 3.954L3.358 4.394C3.044 4.456 2.479 4.645 2.04 4.645H1.537C1.098 4.645 .47 4.551-.126 4.456V3.86ZM1.224-10.922C-.659-10.953-3.986-11.33-7.47-10.891-7.47-10.514-7.501-10.012-7.501-9.415V-6.936C-7.501-6.246-7.47-5.555-7.47-4.833L-7.533-1.475C-7.533-1.004-7.47-.534-7.47-.063V.157C-7.47 1.161-7.438 1.789-7.438 2.511V4.017C-7.438 5.116-7.564 5.774-7.564 6.622V8.85C-5.273 8.85-2.323 9.007-.315 9.07L.596 9.101H1.193C3.389 9.101 7.595 8.693 9.477 6.465L10.011 5.838C10.2 5.586 10.325 5.398 10.483 5.147L10.764 4.488C10.828 4.205 10.984 3.954 11.016 3.609L11.236 1.538C11.236 .941 11.298 .282 11.298-.314V-.785C11.298-1.506 11.361-2.134 11.361-2.793 11.361-3.233 11.298-3.672 11.298-4.08V-4.488C11.298-5.743 11.141-7.093 10.608-7.595L10.231-7.94C9.667-8.474 5.492-10.859 1.82-10.859 1.601-10.891 1.443-10.922 1.224-10.922" fill="#2c8694"/>
<path transform="matrix(1,0,0,-1,779.4504,257.6843)" d="M0 0 1.193-.032C3.516-.094 5.869-.785 6.717-2.542L6.999-3.139C7.533-4.739 7.658-6.434 7.658-8.286 7.658-9.164 7.187-9.384 6.402-9.384 4.237-9.384-.502-8.913-.502-8.662L-.628-5.9C-.659-5.084-.941-4.363-2.197-4.363H-3.17C-4.237-4.174-5.053-4.613-5.774-5.43L-6.246-6.402C-7.03-8.411-7.062-10.953-7.062-13.244-7.062-13.182-7.062-13.118-7.092-13.056-6.904-16.037-6.904-17.23-4.802-17.23L-3.389-17.011C-2.04-16.634-1.945-16.665-1.945-15.567-2.479-15.567-2.918-15.63-3.483-15.63-3.861-15.63-4.142-15.567-4.299-15.441V-13.087C-4.299-12.617-4.269-12.209-4.174-11.832-3.829-11.769-3.483-11.769-3.106-11.769H-.188C2.197-11.769 5.43-11.644 7.47-11.644L7.783-22.503C7.783-22.66 7.753-22.817 7.753-22.942 5.053-22.942 2.825-23.161 .22-23.256 .22-22.911 .188-22.503 .188-22.157L.095-19.835C.095-19.458 .032-19.05 .032-18.705-.094-19.866-1.569-21.656-3.013-21.656H-3.641C-8.003-21.656-10.325-21.656-13.84-17.293L-14.154-16.791C-14.625-15.661-14.938-13.746-14.938-11.675V-10.733C-14.938-10.325-14.938-9.949-14.688-6.654-14.625-6.151-14.468-5.618-14.28-5.084L-14.029-4.394C-13.056-.534-6.465 .032-2.856 .032H-1.601C-1.066 .032-.44 0 0 0" fill="#2c8694"/>
<path transform="matrix(1,0,0,-1,804.9333,273.5333)" d="M0 0H1.004C3.233 0 3.672 1.412 3.672 2.385L3.421 5.022 3.295 7.971C3.264 8.787 2.825 10.419 1.412 10.514L-.22 10.608C-2.103 10.576-1.82 6.716-1.82 4.802V4.425C-1.82 2.259-1.945 0 0 0M5.649 15.315 5.931 15.253C7.407 14.939 8.506 13.307 8.944 11.894L9.102 11.392C9.195 11.11 9.227 10.859 9.258 10.514L9.603 5.43V4.519C9.603 4.3 9.635 3.986 9.635 3.703 9.635 2.887 9.54 2.071 9.54 1.255V.627C9.07-4.017 5.273-4.959 .063-4.959-6.497-4.959-7.658-2.888-8.851-.848L-9.039-.377C-9.447 .345-9.603 2.071-9.635 2.856L-9.667 3.797V4.708C-9.667 6.151-9.572 7.595-8.914 11.926L-8.599 12.774C-8.349 13.432-7.69 14.248-6.277 14.688L-5.178 15.033C-2.981 15.378-.723 15.723 2.072 15.723 4.017 15.723 4.205 15.629 5.649 15.315" fill="#2c8694"/>
<path transform="matrix(1,0,0,-1,829.9766,267.31929)" d="M0 0V-.502C0-2.103 .062-3.515 .094-4.896L.125-6.402H.188C.282-6.402 .313-6.434 .377-6.434 2.542-6.528 4.017-6.277 4.394-6.057L4.614-5.838C4.99-5.461 4.927-4.959 5.022-4.519 5.053-1.162 4.958-.188 4.927 .534 4.864 2.197 4.958 3.547 4.267 3.954L3.358 4.394C3.044 4.456 2.479 4.645 2.04 4.645H1.537C1.098 4.645 .47 4.551-.126 4.456V3.86ZM1.224-10.922C-.659-10.953-3.986-11.33-7.47-10.891-7.47-10.514-7.501-10.012-7.501-9.415V-6.936C-7.501-6.246-7.47-5.555-7.47-4.833L-7.533-1.475C-7.533-1.004-7.47-.534-7.47-.063V.157C-7.47 1.161-7.438 1.789-7.438 2.511V4.017C-7.438 5.116-7.564 5.774-7.564 6.622V8.85C-5.273 8.85-2.323 9.007-.314 9.07L.596 9.101H1.193C3.389 9.101 7.595 8.693 9.477 6.465L10.011 5.838C10.2 5.586 10.325 5.398 10.483 5.147L10.764 4.488C10.828 4.205 10.984 3.954 11.016 3.609L11.236 1.538C11.236 .941 11.298 .282 11.298-.314V-.785C11.298-1.506 11.361-2.134 11.361-2.793 11.361-3.233 11.298-3.672 11.298-4.08V-4.488C11.298-5.743 11.141-7.093 10.608-7.595L10.231-7.94C9.667-8.474 5.492-10.859 1.82-10.859 1.601-10.891 1.443-10.922 1.224-10.922" fill="#2c8694"/>
<path transform="matrix(1,0,0,-1,632.752,182.20359)" d="M0 0C-.364-.349-.918-.425-1.483-.468-5.354-.529-11.294-.511-15.354-.482L-15.522-.479C-18.054-.436-21.668-.754-21.083 2.713-18.821 15.287-15.627 27.967-12.283 40.269-10.054 48.166-7.605 31.109-7.033 29.446-4.674 20.794-2.689 11.946-.235 3.306 .014 2.279 .642 .721 0 0M15.099 10.479 15.056 10.64C12.161 22.472 9.396 34.758 5.865 46.517 4.668 50.34 3.985 54.921 2.439 58.475 .588 62.574-3.581 62.338-7.892 62.014-11.841 61.462-18.314 62.009-21.284 59.809-22.433 58.853-23.022 57.37-23.635 55.03-26.009 45.111-28.31 34.993-31.11 25.153-34.831 8.905-38.486-7.915-41.618-24.284-41.898-26.162-42.504-28.398-41.055-29.761-39.097-31.422-33.834-32.038-30.667-32.01-21.138-31.609-25.021-17.074-20.484-12.173-19.553-11.358-18.29-11.05-17.047-10.913-12.223-10.488-6.987-10.95-2.128-10.834-.969-10.829 .356-10.933 1.285-11.504 2.502-12.204 3.095-13.628 3.48-14.956 4.445-18.454 5.282-21.97 6.431-25.371 8.674-33.608 12.137-31.422 18.95-30.471 21.492-29.832 27.528-29.402 26.336-26.53 24.471-20.295 17.96 1.014 15.099 10.479" fill="#2c8694"/>
<path transform="matrix(1,0,0,-1,576.0092,132.68199)" d="M0 0C-.423-6.605-7.403-8.041-12.857-7.922L-18.934-7.924C-21.166-7.923-23.659-7.908-25.899-7.643-27.729-7.399-27.254-6.824-27.331-5.146-27.33-4.625-27.332-4.111-27.331-3.556-27.278 7.338-27.436 35.866-27.271 42.298-26.864 43.162-26.065 42.998-24.844 43.221-19.458 43.69-5.296 44.822-1.454 39.833-.253 38.183 .096 36.397 .248 34.51 .906 25.739 1.168 8.876 0 0M20.095 .493C20.678 11.835 21.321 33.439 20.526 45.049 20.238 52.558 17.068 60.323 8.826 61.779-4.248 65.234-28.58 65.088-42.536 63.94-45.609 63.963-46.838 61.323-46.61 58.424-46.827 11.531-47.113-39.632-46.467-86.463-46.466-89.46-44.175-90.589-41.583-90.47-37.251-90.219-33.055-90.407-28.992-89.571-27.342-89.005-26.984-87.264-27.009-85.662-27.224-79.318-27.64-72.704-27.77-66.338L-27.774-66.168C-27.962-55.44-27.849-35.086-28.008-24.428-27.984-23.581-27.944-22.828-27.398-22.213-26.645-21.337-24.732-21.3-22.481-21.338-19.209-21.372-9.355-21.389-5.944-21.187 4.465-20.718 14.502-17.535 18.189-7.797 19.286-5.121 19.923-2.293 20.095 .493" fill="#2c8694"/>
<path transform="matrix(1,0,0,-1,688.9456,111.61249)" d="M0 0C-1.949-2.166-6.302-1.368-9.332-1.641-11.004-1.694-12.234-.607-12.398 1.042-13.088 5.827-12.684 13.171-12.85 18.125L-12.855 18.311C-12.973 21.121-12.9 24.201-12.645 27.253-12.549 28.242-12.392 29.345-11.693 30.06-11.083 30.698-10.045 30.963-8.681 31.021-6.31 31.081-3.665 31.006-1.309 30.566 7.83 29.747 4.073 4.511 0 0M60.145-85.938C54.52-84.725 45.718-86.404 40.609-83.318 38.65-82.311 37.259-80.71 36.558-78.771 31.328-64.998 21.866-26.823 14.439-14.221 14.006-12.864 15.89-11.896 16.906-11.166 19.353-9.592 21.658-7.002 22.884-4.112 24.013-1.542 24.306 1.126 24.528 3.862 25.188 12.023 26.018 22.818 23.423 30.37 19.041 44.929-2.406 43.247-15.567 43.45-19.589 43.059-27.021 44.409-28.982 40.029L-29.045 39.867C-30.604 6.309-30.008-30.418-29.516-64.056-29.353-67.314-28.118-68.95-24.608-69.441-20.802-70.096-14.696-71.567-12.456-69.609-11.177-68.591-10.919-66.754-10.79-65.123-10.175-52.778-10.887-38.294-11.472-25.739-11.589-20.809-13.125-15.688-6.771-15.95 4.369-14.562 12.41-58.858 15.072-64.947 20.431-89.796 24.575-100.109 52.622-99.804 61.143-99.536 62.54-101.407 61.906-91.67 61.738-89.732 62.206-86.926 60.145-85.938" fill="#2c8694"/>
<path transform="matrix(1,0,0,-1,786.2935,81.287387)" d="M0 0 .06 .116C1.066 3.3 .359 7.254 .551 10.679 .765 14.347-.979 15.71-4.582 15.612-20.902 15.249-41.112 15.775-56.663 15.946-58.387 15.948-60.376 15.895-61.808 15.018-64.313 13.528-64.329 9.689-64.438 6.866-64.51 4.153-64.896 .289-62.074-.643-58.358-1.778-54.307-1.256-50.44-1.633-46.083-1.788-41.96-1.572-42.219-6.612-41.669-33.964-43.892-63.972-42.351-90.921-40.998-94.441-36.939-94.007-33.852-93.821-30.661-93.56-26.343-93.791-24.371-91.885-23.225-90.689-23.333-88.512-23.337-86.793-23.697-60.445-24.286-33.184-24.288-6.719-24.656-1.07-21.026-1.178-16.474-1.322-14.092-1.339-11.517-1.376-9.083-1.412-4.602-1.317-1.42-2.144 0 0" fill="#2c8694"/>
<path transform="matrix(1,0,0,-1,197.5268,209.573)" d="M0 0-.127-.007C-6.884-.373-33.221-1.097-41.104-1.437-42.979-1.526-42.944-.276-43.106 1.743-44.671 45.555-42.012 81.91-43.683 121.726-43.848 124.406-42.412 125.757-39.914 125.585-28.465 125.641-11.662 124.692-1.033 126.64 4.595 128.174 4.218 138.31 3.608 143.288-2.555 143.865-50.758 141.607-78.736 141.141-88.612 140.786-94.844 140.905-97.383 140.65-99.596 137.928-99.414 131.557-99.227 127.614-99.056 122.625-70.06 128.64-66.485 125.106-61.337 81.35-64.911 37.615-65.274-2.046-71.833-2.479-100.004-2.394-106.749-2.4-110.707-2.55-109.435-9.207-110.068-12.439-110.119-13.992-110.345-15.999-108.9-16.905-75.686-17.284-38.148-17.57-4.81-17.209 4.355-17.767 7.709-13.492 7.191-3.997 7.766 .757 3.404 .336 0 0" fill="#2c8694"/>
<path transform="matrix(1,0,0,-1,210.1557,146.4746)" d="M0 0C-7.069 2.743-15.801 3.538-21.517 8.674-27.61 15.271-26.09 32.037-13.684 28.472-8.38 26.651-8.362 19.427-7.281 13.417-6.948 10.916-5.354 8.912-2.758 8.646 1.877 8.19 7.564 7.827 11.281 9.689 14.966 12.319 13.515 20.756 12.968 24.924 11.331 39.33-.965 41.706-16.825 41.345-25.448 41.292-37.192 40.646-40.501 31.175L-40.567 30.986C-52.649-19.232-1.867 1.494-2.944-25.513-2.866-31.978-7.371-38.166-14.247-36.573-17.679-35.836-19.757-32.19-20.384-28.739-21.117-25.998-20.644-22.851-22.42-20.55-24.89-17.824-31.085-18.798-35.037-18.641-39.436-18.564-44.54-18.617-44.181-24.442-43.663-31.18-41.034-39.433-35.685-43.692-33.114-45.578-29.829-46.597-26.38-47.235-8.904-49.592 18.522-48.804 16.099-25.162 15.129-14.106 11.516-3.508 0 0" fill="#2c8694"/>
<path transform="matrix(1,0,0,-1,308.8417,202.25058)" d="M0 0C-11.587-.764-28.24-1.29-39.654-2.505-42.597-2.682-46.615-3.959-48.86-1.502-54.337 36.676-51.778 83.63-56.774 121.385-56.905 122.763-57.188 124.627-58.239 125.318L-58.353 125.395C-60.991 126.563-64.229 125.035-67.004 124.792-71.158 124.133-75.215 123.817-74.476 119.258-69.584 80.285-71.544 18.726-64.887-17.812-63.998-19.143-61.841-19.235-60.191-19.104-40.672-17.81-18.776-15.434 .525-14.859 4.455-14.924 5.996-12.728 5.958-8.911 6.126-3.761 5.647 .804 0 0" fill="#2c8694"/>
<path transform="matrix(1,0,0,-1,312.4026,149.8561)" d="M0 0C-.364-.35-.918-.425-1.483-.468-5.355-.528-11.294-.511-15.354-.482L-15.522-.479C-18.054-.436-21.668-.754-21.083 2.713-18.821 15.287-15.627 27.967-12.283 40.269-10.054 48.166-7.605 31.109-7.033 29.446-4.674 20.794-2.689 11.946-.235 3.306 .014 2.279 .642 .721 0 0M21.449-7.944 21.398-7.798C14.355 9.906 11.182 28.955 5.721 47.172 2.864 56.236 4.185 63.706-7.878 61.996-11.952 61.237-17.383 62.156-20.783 59.96-22.337 58.827-23.044 56.729-23.563 54.857-26.812 42.395-30.049 29.572-33.07 17.044-35.41 5.322-38.336-6.81-40.655-18.66-41.116-21.079-41.614-23.576-41.959-25.893-42.258-27.987-42.018-29.551-40.141-30.425-36.364-31.828-29.595-33.153-26.772-30.585-23.497-27.721-23.433-20.027-22.086-14.877-21.529-12.346-19.34-10.98-16.862-10.89-12.007-10.506-6.759-10.947-1.905-10.834-.212-10.821 1.552-11.152 2.513-12.653 4.754-17.415 5.216-22.945 7.335-27.755 7.889-29.148 8.666-30.624 10.113-31.162 11.049-31.529 12.271-31.494 13.344-31.355 16.947-30.827 21.542-30.185 24.316-29.208 27.561-28.367 26.147-25.499 25.534-23.004 24.267-18.456 22.791-12.077 21.449-7.944" fill="#2c8694"/>
<path transform="matrix(1,0,0,-1,364.4716,138.32299)" d="M0 0C.536 .393 1.384-1.671 1.741-2.31 9.458-18.059 17.489-33.859 25.643-49.386 27.462-52.586 31.028-52.6 34.429-52.542 35.892-52.539 37.418-52.592 38.834-52.237 42.77-51.281 41.934-46.263 42.341-43.14 43.553-30.777 45.047-18.019 46.431-5.483 48.436 15.084 51.319 38.373 52.846 58.842 53.076 62.328 53.303 65.561 53.322 68.321 53.379 70.121 52.074 71.409 50.338 71.796 47.222 72.553 43.927 72.887 40.79 73.087 39.692 73.147 38.375 73.087 37.516 72.424L37.407 72.334C36.531 71.623 36.323 70.063 36.235 68.839 33.993 42.61 30.184 6.899 28.959-18.926 28.885-20.189 28.725-21.998 27.423-20.268 26.999-19.714 26.493-18.858 25.991-18.002 20.374-8.324 14.815 1.69 10.344 11.79 7.148 19.727 3.796 27.855 .19 35.621-1.038 38.227-2.836 39.097-5.449 39.149-8.873 39.306-13.67 39.689-16.028 37.695-17.73 36.354-17.928 33.825-17.832 31.683-17.383 21.612-16.778 9.113-16.146-1.636-14.749-24.804-13.459-49.637-12.27-72.995-12.17-75.428-11.547-78.514-8.845-78.938-5.61-79.304-.592-78.669 1.496-76.595 2.6-75.419 2.815-73.529 2.898-71.902 4.327-48.895-.889-22.76 0 0" fill="#2c8694"/>
<path transform="matrix(1,0,0,-1,446.7575,174.63239)" d="M0 0C.515 7.609 1.234 15.825 2.025 24.22 3.684 40.977 5.46 59.662 6.934 75.753L6.975 75.92C7.389 77.945 9.323 78.567 11.18 78.528 17.117 78.3 25.056 77.736 27.283 71.307 32.133 56.081 25.188 25.822 24.28 9.093 24.215 5.282 23.121 .458 20.523-2.295 16.837-6.315 11.097-5.813 4.62-5.09 1.388-4.872-.484-3.344 0 0M-17.265-15.894C-10.066-17.112-2.985-17.333 4.351-17.758L4.601-17.768C33.415-19.127 41.336-8.089 41.678 18.028 42.641 27.41 44.753 45.305 45.635 57.149 46.523 64.808 46.076 73.992 41.074 80.057 31.449 92.328 9.792 91.386-6.278 92.741-7.881 92.866-9.837 92.837-10.992 91.748-12.176 90.697-12.492 88.701-12.647 87.078-15.517 56.859-19.555 22.988-22.813-7.659-23.518-12.194-22.008-15.197-17.265-15.894" fill="#2c8694"/>
<path transform="matrix(1,0,0,-1,508.3701,209.59389)" d="M0 0C-.823-.001-1.646-.006-2.469-.008L-7.157-5.229-12.375-.039C-12.901-.041-17.014-7.27-17.014-7.27L-21.306-.062C-22.104-.063-22.902-.068-23.699-.068-44.664-.087-65.639-.086-86.603-.096-98.538-.107-110.463-.118-122.388-.13-123.714-.13-125.033-.211-125.585-1.733-126.115-3.175-125.087-3.985-124.253-4.861-119.898-9.427-114.416-12.236-108.675-14.517-108.384-14.627-108.105-14.757-107.856-14.886-107.881-14.937-107.868-14.913-107.854-14.887-106.93-15.391-106.71-16.48-106.696-17.685-106.653-20.925-106.539-24.158-106.435-27.39-106.347-30.166-104.726-31.096-102.361-29.569-101.555-29.047-100.75-28.525-99.944-27.993-97.124-26.125-94.332-24.216-91.59-22.234-90.503-21.458-89.445-20.963-88.285-20.766-87.878-20.687-87.462-20.659-87.027-20.662-86.916-20.666-86.795-20.69-86.664-20.714-71.589-23.574-56.817-24.341-41.514-23.273-30.395-22.498-19.443-20.848-9.198-16.169-3.778-13.702 1.009-10.417 2.8-5.795 4.37-1.085 3.604 .002 0 0" fill="#2c8694"/>
<path transform="matrix(1,0,0,-1,829.7489,93.67209)" d="M0 0C-4.419 .577-8.351 1.16-9.867-3.359-14.747-16.058-18.144-29.813-23.01-42.569-24.193-45.411-25.373-43.92-26.335-41.852-31.314-31.768-35.753-19.194-40.231-9.666-40.973-8.466-42.367-8.076-43.737-8.063-45.919-8.046-49.334-8.274-51.821-8.323-53.405-8.373-54.715-8.472-55.424-8.946L-55.528-9.019C-56.673-9.872-56.138-11.879-55.683-13.239-50.073-28.27-42.581-43.249-35.534-57.807-34.229-60.461-33.291-62.979-32.996-65.846-32.222-73.587-32.026-93.336-32.003-109.249-32.034-109.358-32.071-109.466-32.072-109.585-32.075-111.165-32.075-112.721-32.068-114.243-32.067-114.356-32.03-114.458-32.002-114.563-32.006-119.722-32.025-124.204-32.043-127.322-32.044-127.577-31.951-127.803-31.823-128.004-31.812-128.243-31.804-128.495-31.792-128.73-32.066-134.302-25.936-133.322-21.338-133.397-18.114-133.328-12.301-133.772-12.301-129.528-12.286-129.123-12.273-128.692-12.259-128.276-11.998-128.043-11.825-127.714-11.821-127.339-11.701-113.408-11.752-76.082-11.754-66.53-11.805-64.046-11.234-61.687-10.345-59.275-3.584-41.232 .632-24.043 7.515-5.603 10.296 .744 4.215-.703 0 0" fill="#2c8694"/>
<path transform="matrix(1,0,0,-1,111.9561,170.39659)" d="M0 0C-.2 1.868-3.429 3.618-3.594 3.694-10.793 7.017-16.169 13.541-18.393 21.123-19.495 24.88-19.818 28.853-19.179 32.725-18.757 35.285-18.306 37.912-19.611 40.307-20.61 42.142-22.437 43.365-24.371 44.038-28.271 45.393-32.729 44.238-35.964 41.832-39.364 39.303-41.854 35.481-42.653 31.301-44.512 21.573-38.522 12.56-31.056 6.955-26.712 3.693-21.73 1.27-16.723-.791-11.712-2.854-5.914-4.211-.868-1.513-.373-1.248 .062-.578 0 0" fill="#2c8694"/>
<path transform="matrix(1,0,0,-1,108.0537,179.12569)" d="M0 0C-6.056-1.335-12.611-.735-18.283 1.812-21.239 3.14-23.962 5.183-27.273 5.515-30.304 5.819-33.021 4.25-34.701 1.792-38.23-3.369-35.313-9.861-30.461-12.908-25.283-16.159-18.17-15.963-12.517-14.255 .95-10.185 2.146 .473 0 0" fill="#2c8694"/>
<path transform="matrix(1,0,0,-1,835.8259,67.524997)" d="M0 0C-2.555 .262-5.079 .135-7.601-.347-13.111-1.398-18.351-4.265-21.948-8.575-25.492-12.821-23.073-13.51-21.34-12.864-16.622-11.103-11.454-10.902-6.614-12.302-4.027-13.049-1.689-14.429 .862-15.274 3.435-16.127 6.317-16.208 8.736-14.848 10.996-13.577 12.109-10.972 11.734-8.449 11.332-5.747 9.659-3.642 7.367-2.235 5.183-.895 2.528-.26 0 0" fill="#2c8694"/>
<path transform="matrix(1,0,0,-1,853.7996,43.149385)" d="M0 0C-1.865 3.724-5.184 6.579-9.047 8.065-17.704 11.393-27.086 7.012-33.281 .934-36.947-2.663-39.996-6.94-42.703-11.288-45.537-15.838-50.563-26.234-49.148-28.253-47.545-30.54-41.126-22.608-39.716-21.175-36.866-18.276-33.307-16.165-29.392-15.068-24.839-13.793-20.039-13.824-15.364-14.252-10.774-14.671-5.832-15.324-1.897-12.351-.052-10.957 1.154-9.024 1.432-6.712 1.712-4.382 1.037-2.07 0 0" fill="#2c8694"/>
</g>
</g>
</svg>
