<svg xmlns="http://www.w3.org/2000/svg" xmlns:xlink="http://www.w3.org/1999/xlink" xmlns:inkscape="http://www.inkscape.org/namespaces/inkscape" version="1.1" width="211.64" height="174.638" viewBox="0 0 211.64 174.638">
<defs>
<clipPath id="clip_1">
<path transform="matrix(1,0,0,-1,0,174.638)" d="M0 174.638H211.64V0H0Z"/>
</clipPath>
</defs>
<g inkscape:groupmode="layer" inkscape:label="Layer 1">
<g clip-path="url(#clip_1)">
<path transform="matrix(1,0,0,-1,152.5412,36.1969)" d="M0 0C.075 3.723-1.728 5.051-5.28 4.718-10.133 4.153-6.551-1.936-10.063-3.4-11.898-4.132-13.981-3.915-15.985-3.887-16.939-3.829-17.986-3.994-18.502-3.18-22.298 9.626-12.482 12.276-1.047 11.538 3.244 11.377 8.028 11.253 10.165 7.101 11.61 4.393 12.251-1.876 10.902-5.01 7.839-11.66-.974-12.016-6.363-16.087-7.167-16.577-7.631-16.819-7.858-17.705-7.998-18.319-8.108-19.065-7.956-19.674-7.665-20.612-6.446-20.309-5.693-20.254-1.096-19.656 3.159-18.938 8.826-18.346 10.247-18.171 11.405-18.651 11.323-20.232 11.342-21.256 11.431-22.821 11.433-24.203 11.406-25.112 11.456-25.837 11.234-26.475 11.048-26.981 10.249-27.075 9.691-27.114-.46-27.939-10.469-27.556-17.574-27.801-18.098-27.831-18.582-27.71-18.862-27.184-19.589-25.681-19.38-23.639-19.316-22.085-19.249-20.513-19.151-19.254-18.791-17.738-15.779-4.719 .208-11.372 0-.063" fill="#2c8694"/>
<path transform="matrix(1,0,0,-1,159.828,69.759)" d="M0 0C1.282-.036 2.938-.177 2.892-1.817 2.92-3.321 2.814-6.005 2.803-7.348 2.792-7.804 2.763-8.27 2.415-8.602 1.584-9.405 .077-9.007-.958-8.903-5.136-8.604-10.718-7.366-15.129-7.139-16.028-7.05-16.445-7.572-16.448-8.452-16.509-9.285-16.468-10.172-16.427-11.014-16.337-12.055-16.344-16.125-15.529-16.514-10.921-17.064-2.574-13.701 1.099-19 3.069-21.785 3.067-25.895 3-29.254 2.872-32.847 2.513-36.777-.112-39.066-2.212-41.109-7.335-41.523-11.629-41.55-15.341-41.402-21.087-41.395-23.282-38.224-24.919-35.955-25.423-32.569-25.204-29.485-25.121-28.694-25.046-27.266-24.601-26.814-24.435-26.653-24.199-26.614-23.963-26.605-22.909-26.597-21.03-26.625-19.53-26.562-17.51-26.376-16.497-28.114-16.113-30.074-16.011-30.641-15.948-31.308-15.774-31.792-14.609-34.603-9.409-35.772-6.997-34.076-5.978-33.171-6.131-31.256-5.999-29.559-5.925-28.553-5.893-27.554-5.992-26.535-6.176-22.675-8.526-22.336-11.489-22.312-13.484-22.171-14.921-23.04-16.786-23.115-18.666-23.046-20.379-22.667-23.143-22.115-24.026-21.977-25.036-21.592-24.966-20.544-24.932-16.492-25.191-12.275-25.221-8.21-25.152-6.676-25.984 .353-23.926 .383-16.622 .516-9.247 .28-.059 .002" fill="#2c8694"/>
<path transform="matrix(1,0,0,-1,78.645,99.838108)" d="M0 0C-2.991-.031-8.134-.93-10.24-.555-11.398 21.011-9.907 42.143-10.623 63.208-10.454 63.544-10.039 63.623-9.665 63.622-6.759 63.555-3.5 63.629-.592 64.01 2.821 64.048 2.468 68.896 2.725 71.392 2.687 72.542 3.124 74.747 1.577 74.829-2.583 74.534-24.131 73.634-32.628 73.403-35.003 73.429-35.818 73.604-36.107 72.778-36.427 70.846-36.287 67.478-36.548 65.308-36.96 63.09-34.683 63.654-33.277 63.695-30.634 63.791-28.088 64.061-25.512 63.916-21.521 41.216-25.053 19.789-24.319-1.045-25.92-1.256-31.339-1.251-33.202-1.368-34.043-1.528-35.202-.999-35.868-1.654-36.162-1.999-36.161-2.465-36.19-2.889-36.147-4.659-36.836-8.682-36.456-10.514-24.839-11.068-11.105-11.274 .824-10.593 3.403-10.296 3.319-6.208 3.749-3.452 4.099-.058 3.452 .51 .04 .002Z" fill="#2c8694"/>
<path transform="matrix(1,0,0,-1,103.3236,67.2811)" d="M0 0C4.732-.102 11.371 .635 12.468 6.135 13.206 9.109 13.212 12.631 13.226 15.639 13.316 19.846 12.57 25.112 8.397 26.916 6.03 27.925 3.253 28.079 .646 28.004-.492 27.955-1.577 27.82-2.455 27.601-2.726 27.537-3.171 27.436-3.322 27.261-3.417 25.109-3.328 9.248-3.357 4.089-3.321 2.169-3.429 1.033-3.313 .51-2.713 .012-1.046 .023-.056 0M-5.88 42.696C-.443 42.865 4.536 42.147 9.674 41.509 16.631 40.512 23.815 38.716 24.937 31.259 26.949 23.108 26.554 14.134 25.174 5.926 21.956-8.477 9.214-10.394-2.765-10.011-3.475-9.964-4.044-10.324-4.008-11.097-3.904-21.5-3.392-31.93-2.962-42.281-2.877-43.074-3.421-43.492-4.174-43.427-8.055-43.395-11.2-44.152-15.509-43.988-16.466-44.005-17.135-43.451-17.013-42.49-17.21-15.378-17.865 14.409-16.825 41.455-13.343 42.898-9.723 42.531-5.936 42.695" fill="#2c8694"/>
<path transform="matrix(1,0,0,-1,168.9343,123.3667)" d="M0 0C-4.482-4.807-10.158-7.796-16.11-10.238-16.411-10.356-16.701-10.495-16.959-10.632-16.932-10.685-16.945-10.66-16.96-10.633-17.917-11.169-18.133-12.306-18.134-13.56-18.14-16.935-18.221-20.303-18.292-23.67-18.351-26.563-20.028-27.55-22.509-25.987-23.354-25.453-24.199-24.919-25.044-24.374-28.003-22.462-30.932-20.506-33.812-18.475-34.953-17.679-36.06-17.177-37.27-16.985-37.695-16.907-38.129-16.883-38.582-16.891-38.698-16.896-38.823-16.923-38.959-16.949-54.48-20.076-70.153-21.067-85.948-20.144-97.536-19.467-108.961-17.876-119.685-13.124-125.358-10.619-130.382-7.253-132.301-2.46-133.991 2.426-133.206 3.566-129.453 3.607-128.596 3.615-127.738 3.62-126.881 3.628L-121.938-1.755-116.565 3.711C-116.018 3.715-111.649-3.764-111.649-3.764L-107.264 3.792C-106.433 3.8-105.602 3.805-104.772 3.814-82.939 4.039-61.096 4.286-39.264 4.521-26.835 4.65-14.416 4.778-1.997 4.905-.617 4.921 .758 4.851 1.351 3.273 1.919 1.778 .858 .922 0 0" fill="#2c8694"/>
</g>
</g>
</svg>
