<?xml version="1.0" encoding="UTF-8"?>
<svg id="Layer_1" data-name="Layer 1" xmlns="http://www.w3.org/2000/svg" viewBox="0 0 925.28 317.11">
  <defs>
    <style>
      .cls-1 {
        fill: #fff;
      }
    </style>
  </defs>
  <g>
    <g>
      <path class="cls-1" d="M98.88,257.68l1.19.03c2.32.06,4.68.75,5.52,2.51l.28.6c.53,1.6.66,3.3.66,5.15,0,.88-.47,1.1-1.26,1.1-2.17,0-6.9-.47-6.9-.72l-.13-2.76c-.03-.82-.31-1.54-1.57-1.54h-.97c-1.07-.19-1.88.25-2.6,1.07l-.47.97c-.78,2.01-.82,4.55-.82,6.84,0-.06,0-.13-.03-.19.19,2.98.19,4.17,2.29,4.17l1.41-.22c1.35-.38,1.44-.35,1.44-1.44-.53,0-.97.06-1.54.06-.38,0-.66-.06-.82-.19v-2.35c0-.47.03-.88.13-1.26.34-.06.69-.06,1.07-.06h2.92c2.39,0,5.62-.13,7.66-.13l.31,10.86c0,.16-.03.31-.03.44-2.7,0-4.93.22-7.53.31,0-.35-.03-.75-.03-1.1l-.09-2.32c0-.38-.06-.79-.06-1.13-.13,1.16-1.6,2.95-3.04,2.95h-.63c-4.36,0-6.68,0-10.2-4.36l-.31-.5c-.47-1.13-.78-3.04-.78-5.12v-.94c0-.41,0-.78.25-4.08.06-.5.22-1.04.41-1.57l.25-.69c.97-3.86,7.56-4.43,11.17-4.43h1.26c.53,0,1.16.03,1.6.03Z"/>
      <path class="cls-1" d="M130.01,258.22l.28.06c1.48.31,2.57,1.95,3.01,3.36l.16.5c.09.28.13.53.16.88l.34,5.08v.91c0,.22.03.53.03.82,0,.82-.09,1.63-.09,2.45v.63c-.47,4.64-4.27,5.59-9.48,5.59-6.56,0-7.72-2.07-8.91-4.11l-.19-.47c-.41-.72-.56-2.45-.6-3.23l-.03-.94v-.91c0-1.44.09-2.89.75-7.22l.31-.85c.25-.66.91-1.47,2.32-1.91l1.1-.35c2.2-.35,4.46-.69,7.25-.69,1.95,0,2.13.09,3.58.41ZM124.36,273.53h1c2.23,0,2.67-1.41,2.67-2.39l-.25-2.64-.13-2.95c-.03-.82-.47-2.45-1.88-2.54l-1.63-.09c-1.88.03-1.6,3.89-1.6,5.81v.38c0,2.17-.13,4.43,1.82,4.43Z"/>
      <path class="cls-1" d="M157.22,258.22l.28.06c1.48.31,2.57,1.95,3.01,3.36l.16.5c.09.28.13.53.16.88l.34,5.08v.91c0,.22.03.53.03.82,0,.82-.09,1.63-.09,2.45v.63c-.47,4.64-4.27,5.59-9.48,5.59-6.56,0-7.72-2.07-8.91-4.11l-.19-.47c-.41-.72-.56-2.45-.6-3.23l-.03-.94v-.91c0-1.44.09-2.89.75-7.22l.31-.85c.25-.66.91-1.47,2.32-1.91l1.1-.35c2.2-.35,4.46-.69,7.25-.69,1.95,0,2.13.09,3.58.41ZM151.57,273.53h1c2.23,0,2.67-1.41,2.67-2.39l-.25-2.64-.13-2.95c-.03-.82-.47-2.45-1.88-2.54l-1.63-.09c-1.88.03-1.6,3.89-1.6,5.81v.38c0,2.17-.13,4.43,1.82,4.43Z"/>
      <path class="cls-1" d="M177.84,278.24c-1.88.03-5.21.41-8.69-.03,0-.38-.03-.88-.03-1.48v-2.48c0-.69.03-1.38.03-2.1l-.06-3.36c0-.47.06-.94.06-1.41v-.22c0-1,.03-1.63.03-2.35v-1.51c0-1.1-.13-1.76-.13-2.6v-2.23c2.29,0,5.24-.16,7.25-.22l.91-.03h.6c2.2,0,6.4.41,8.28,2.64l.53.63c.19.25.31.44.47.69l.28.66c.06.28.22.53.25.88l.22,2.07c0,.6.06,1.26.06,1.85v.47c0,.72.06,1.35.06,2.01,0,.44-.06.88-.06,1.29v.41c0,1.26-.16,2.61-.69,3.11l-.38.34c-.56.53-4.74,2.92-8.41,2.92-.22.03-.38.06-.6.06ZM176.61,267.32v.5c0,1.6.06,3.01.09,4.39l.03,1.51h.06c.09,0,.13.03.19.03,2.17.09,3.64-.16,4.02-.38l.22-.22c.38-.38.31-.88.41-1.32.03-3.36-.06-4.33-.09-5.05-.06-1.66.03-3.01-.66-3.42l-.91-.44c-.31-.06-.88-.25-1.32-.25h-.5c-.44,0-1.07.09-1.66.19v.6l.13,3.86Z"/>
      <path class="cls-1" d="M232.07,258.47c.06.31.13,1.19.13,2.23v.44c0,1.85.16,4.05.19,5.87l.03,3.39v.19l-.03,1.13.03,1.16.03,4.96c0,.91.13,2.01.09,2.82l-.03.72v.16c0,.22.03.47.03.66v.35c-1.35.34-3.55.5-5.27.63.03-.88-.09-1.79-.06-2.67l.03-.94c0-.22-.06-.41-.06-.63l.03-.69v-.13l-.06-3.39.03-.6c.03-.69-.06-1.44-.06-2.42v-3.3l-.5.82c-.13.28-.28.75-.41,1.07l-.72,1.88c-.06.16-.19.28-.22.47l-.19.53-.25.53-1.07,2.61c-.06.13-.09.28-.16.38-.85.06-2.23.13-2.95.22l-.5-1.76-.78-2.7c-.06-.16-.09-.41-.16-.56l-1.19-4.08c-.06-.09-.09-.25-.13-.38v5.21c0,1.19-.09,2.51-.09,3.73-1.51.41-2.32.6-4.36.6h-.75c-.5,0-.6-.13-.6-.41,0-.19.03-.38.03-.66v-1.98c0-3.89-.03-4.14,0-4.9l.09-1.82c.06-.94.13-1.76.13-2.6v-1.04c0-.16.03-.31.03-.47l.09-1.38c.09-1.54.22-2.92.19-3.8,1.88-.19,4.27-.28,7.12-.35l.25.75c.03.13.09.31.09.41l.66,2.13.06.38.41,1.22.31,1.22.85,2.89.13.47.19.66.5-1.44.38-1.1c.09-.16.16-.31.22-.5l.69-1.76c.19-.5.38-.94.6-1.44l.22-.47.75-1.91c.19-.72,1.82-.75,3.14-.75.69,0,2.04.03,2.86.13Z"/>
      <path class="cls-1" d="M248.45,259.25c0,.13.03.22.03.34,0,.56-.19,1.16-.19,1.73l-.19,12.02c0,.69.53.85.91.85,1.79,0,2.64-.09,2.64-.66,0-.31.03-.85,0-1.51l-.06-1.41c-.03-.5-.06-.97-.06-1.54v-.5c0-.5-.06-1.04-.06-1.54l-.03-1.79c0-.47-.06-1-.06-1.54v-2.2c0-.47-.03-.82-.03-1.32,0-.88-.09-1.66-.09-1.88l6.18.06c0,2.95-.19,4.55-.13,6.69l.03.91v1.66l.03,1.76.03.75-.03.75.03,1.26-.03,1.16c-.09,2.92-2.57,5.15-6.15,5.33l-1.82.09c-.41.03-.78.06-1.13.06h-1.35c-.38,0-.75-.03-1.1-.06l-1.04-.09c-1.57-.16-3.48-1.35-4.11-3.14-.09-.47-.13-.72-.16-1.16-.03-.09-.03-.22-.03-.72,0-.72-.13-1.6-.22-3.61v-5.87c0-.5.03-1.04.03-1.57v-2.1c0-.25.03-.44.03-.69v-.91c2.45.06,6.18.38,8.13.38Z"/>
      <path class="cls-1" d="M268.72,258.63l.75-.09,2.29-.09,2.35.03c4.36.06,7.63.16,8.51,2.35l.19.47c.19.5.16,1.1.25,1.6.06.22.13.94.13,1.69,0,.85-.06,1.73-.28,1.95-.56.5-1.66.09-3.11.09-1.29,0-3.14.25-3.89.06-.13-.94-.31-1.85-.31-2.76s-.09-1.41-1.66-1.41-1.41,1.04-1.41,1.69c0,1.29.5,2.17,1.41,2.51l.69.19c3.86,1.04,6.94,1.26,7.94,3.04,1.16,2.1.69,4.33.69,6.12,0,.72-.5,1.35-.88,1.69-.69,1.1-2.42,1.76-4.24,2.01l-1.13.16c-.6.16-1.32.16-2.04.16h-2.13c-.47,0-.97-.03-1.38-.06l-.97-.09c-5.49-.53-4.74-2.6-4.93-5.68,0-1.13-.22-1.79.53-1.79h.13c1.69,0,3.04-.06,4.8-.06,1.79-.06,1.57.22,1.85,1.91.31,1.76.85,1.95,1.88,1.95,1.54,0,1.82-1.35,1.54-2.76l-.06-.31c-.38-.94-1.29-1.13-1.85-1.32l-.82-.25c-.22-.06-.47-.16-.72-.22l-.69-.16c-.72-.16-1.51-.44-2.17-.63-2.79-.72-4.21-3.3-4.21-6.56,0-3.86-.16-4.52,2.95-5.43Z"/>
      <path class="cls-1" d="M292.51,278.05l-.91-.09c0-.22-.03-.41-.03-.6v-3.01c0-.82.09-1.54.09-2.35v-1.16c0-.47-.06-.91.13-5.81l-.5-6.37c.56-.06,2.98-.22,3.58-.22s2.35.16,2.54.25l.28,5.59v.25c-.28,1.95-.03,4.02-.03,5.99,0,1.04-.44,4.3.03,7.06l-.03.41c-.78,0-5.02-.13-5.15.06Z"/>
      <path class="cls-1" d="M323.05,260.45l.31.6c.69,1.32.91,2.86.91,5.84l-6.62-.09c0-1.29-.38-3.83-1.91-3.83h-.28c-1.79,0-1.82,2.95-1.88,5.93-.03,3.08-.03,6.18,2.07,6.18,1.22,0,1.6-1.63,1.73-1.88l7,.06c.03,1.73-.47,3.42-.97,4.02-1.19,1.41-2.86,2.13-4.49,2.32l-.88.09c-.41.03-.91.09-1.38.09h-1.29c-.47,0-1-.03-1.44-.09l-1-.13c-5.71-.72-6.18-3.64-6.87-7.09-.13-.63-.22-1.66-.22-2.29v-1.85c0-6.12,1.13-9.26,6.09-9.73l1.35-.13c.72-.06,1.44-.06,2.23-.06,3.83,0,6.62.28,7.56,2.04Z"/>
      <path class="cls-1" d="M337.51,270.58c.91-.19,1.1.16,1.41.16-1.88,9.35-2.73,9.29-2.76,11.02-.31.03-2.76.13-3.86.47l-1.41.13c1.07-6.78,2.51-11.68,3.26-11.61,1.22,0,1.85.13,3.36-.16Z"/>
      <path class="cls-1" d="M377.31,274.07s-.03,0-.03.03c-.13,2.73-2.17,4.39-3.86,4.46l-.79.09c-3.61-.19-10.36-.16-10.64-5.33l-.06-1.1c-.03-.63,0-1.47-.03-2.2,0-1.44.22-2.23.13-5.74,0-.35.06-.72.06-1.04l.34-2.98c.56-2.89,5.93-4.96,10.55-4.46,1.13,0,4.68.28,6.12,1.63l.09.06c.19.25.72,1.32.72,2.01v.16l.06.79c.03.34.06,2.73.13,4.21-1.07.38-2.79.28-4.21.28-1.16,0-3.07-.22-2.89-.69.66-3.86-.13-4.17-.94-4.17-.53,0-.25.03-.75.09l-.47.16c-.69.22-1.07.5-1.07,1.16l-.88,9.38c0,1.54.47,2.89,2.35,2.98,1.07-.06,2.07-.16,2.89-.82.31-.56.56-1.38.13-2.35l-.31-.06c-.66.06-1.41.09-2.1.09-.31,0-.56-.03-.78-.09v-.66c0-.75.25-2.48.66-3.23l4.77-.06c.56.03,1.1-.03,3.23.06.6,0,1.38-.06,1.92-.06.31,0,.53,0,.78.03l-.03,4.02v.16c0,.38-.16,1.54-.16,2.1v.91c0,.5-.13,1-.13,1.6v.19l-.13,2.76c-.09,2.04-.75,2.29-3.48,2.29-.28,0-.53-.03-.78-.03-.34,0-.66.03-.88.03,0-.28,0-1,.6-5.81,0-.47-.03-.85-.13-.85Z"/>
      <path class="cls-1" d="M405.24,258.22l.28.06c1.48.31,2.57,1.95,3.01,3.36l.16.5c.09.28.13.53.16.88l.34,5.08v.91c0,.22.03.53.03.82,0,.82-.09,1.63-.09,2.45v.63c-.47,4.64-4.27,5.59-9.48,5.59-6.56,0-7.72-2.07-8.91-4.11l-.19-.47c-.41-.72-.56-2.45-.6-3.23l-.03-.94v-.91c0-1.44.09-2.89.75-7.22l.31-.85c.25-.66.91-1.47,2.32-1.91l1.1-.35c2.2-.35,4.46-.69,7.25-.69,1.95,0,2.13.09,3.58.41ZM399.59,273.53h1c2.23,0,2.67-1.41,2.67-2.39l-.25-2.64-.13-2.95c-.03-.82-.47-2.45-1.88-2.54l-1.63-.09c-1.88.03-1.6,3.89-1.6,5.81v.38c0,2.17-.13,4.43,1.82,4.43Z"/>
      <path class="cls-1" d="M432.45,258.22l.28.06c1.48.31,2.57,1.95,3.01,3.36l.16.5c.09.28.13.53.16.88l.34,5.08v.91c0,.22.03.53.03.82,0,.82-.09,1.63-.09,2.45v.63c-.47,4.64-4.27,5.59-9.48,5.59-6.56,0-7.72-2.07-8.91-4.11l-.19-.47c-.41-.72-.56-2.45-.6-3.23l-.03-.94v-.91c0-1.44.09-2.89.75-7.22l.31-.85c.25-.66.91-1.47,2.32-1.91l1.1-.35c2.2-.35,4.46-.69,7.25-.69,1.95,0,2.13.09,3.58.41ZM426.8,273.53h1c2.23,0,2.67-1.41,2.67-2.39l-.25-2.64-.13-2.95c-.03-.82-.47-2.45-1.88-2.54l-1.63-.09c-1.88.03-1.6,3.89-1.6,5.81v.38c0,2.17-.13,4.43,1.82,4.43Z"/>
      <path class="cls-1" d="M453.07,278.24c-1.88.03-5.21.41-8.69-.03,0-.38-.03-.88-.03-1.48v-2.48c0-.69.03-1.38.03-2.1l-.06-3.36c0-.47.06-.94.06-1.41v-.22c0-1,.03-1.63.03-2.35v-1.51c0-1.1-.13-1.76-.13-2.6v-2.23c2.29,0,5.24-.16,7.25-.22l.91-.03h.6c2.2,0,6.4.41,8.29,2.64l.53.63c.19.25.31.44.47.69l.28.66c.06.28.22.53.25.88l.22,2.07c0,.6.06,1.26.06,1.85v.47c0,.72.06,1.35.06,2.01,0,.44-.06.88-.06,1.29v.41c0,1.26-.16,2.61-.69,3.11l-.38.34c-.56.53-4.74,2.92-8.41,2.92-.22.03-.38.06-.6.06ZM451.84,267.32v.5c0,1.6.06,3.01.09,4.39l.03,1.51h.06c.09,0,.13.03.19.03,2.17.09,3.64-.16,4.02-.38l.22-.22c.38-.38.31-.88.41-1.32.03-3.36-.06-4.33-.09-5.05-.06-1.66.03-3.01-.66-3.42l-.91-.44c-.31-.06-.88-.25-1.32-.25h-.5c-.44,0-1.07.09-1.66.19v.6l.13,3.86Z"/>
      <path class="cls-1" d="M498.35,255.24c5.84,0,6.72,4.14,6.69,6.53l-.03,2.32h-7.12c-.06-1.13-.09-1.79-.09-2.54,0-1.54-1.16-1.6-2.2-1.6-.53-.03-.63.06-1.1.34l-.13.13c-.47.47-.47,1.1-.56,1.98v1.19c.31,2.7.22,3.2.22,4.65l.19,1.47c.16,1.32.44,2.32,1.69,2.32,1.76,0,2.26-1.19,2.26-3.45,1.13,0,5.84-.06,7-.06v1.85c0,.85.06,1.63-.25,2.64l-.13.41c-.22.44-.47.85-.82,1.29l-.47.38c-1.73,1.38-5.4,1.47-7.53,1.47-1.35,0-2.89,0-4.11-.47l-.85-.31c-.47-.16-1-.44-1.35-.72l-.16-.13-.5-.5-.38-.5c-.28-.38-.6-.94-.69-1.38l-.41-1.07c-.09-.63-.25-1.22-.25-1.66,0-.38-.09-.78-.13-1.19l-.06-1.38c0-.19-.06-.41-.06-.63v-.44c0-6.31.41-8.98,2.82-9.92,1.82-.79,4.27-1.29,8.5-1Z"/>
      <path class="cls-1" d="M522.92,276.77v-.25h.03v-.41l-.13-2.04c-.31.03-.66.06-.97.06h-1c-.56,0-1.73.03-2.23.16l-.13,2.35c-.25.25-.6.35-2.1.35-.41-.06-.82-.06-1.19-.13l-2.6-.09.25-2.2.25-1.19.28-2.13.28-1.38.34-1.88.09-.66.47-2.04v.13l.16-1,.06-.56.28-1.73.41-1.38c.16-.35.28-.78.41-1.16.47-1.54.53-1.91.79-2.32h-.13c-.97,0-1.91.06-3.11.13l-2.07.09c-.28,0-.41-.09-.41-.69l.28-3.42c.03-.28.06-.72.34-.72.31.09.69.16,1.07.13l18.33-.85,2.45-.16c0,.25.03.88.03,1.63,0,1.47-.19,3.45-1.29,3.7l-1.35.19-3.51.25,2.23,18.58c0,.31-1.03.13-6.62.66ZM522.42,270.49l-.06-.31-1.57-11.61-.28,2.6-1.6,7.94-.16,1.54,3.67-.16Z"/>
      <path class="cls-1" d="M545.52,259.25c0,.13.03.22.03.34,0,.56-.19,1.16-.19,1.73l-.19,12.02c0,.69.53.85.91.85,1.79,0,2.64-.09,2.64-.66,0-.31.03-.85,0-1.51l-.06-1.41c-.03-.5-.06-.97-.06-1.54v-.5c0-.5-.06-1.04-.06-1.54l-.03-1.79c0-.47-.06-1-.06-1.54v-2.2c0-.47-.03-.82-.03-1.32,0-.88-.09-1.66-.09-1.88l6.18.06c0,2.95-.19,4.55-.13,6.69l.03.91v1.66l.03,1.76.03.75-.03.75.03,1.26-.03,1.16c-.09,2.92-2.57,5.15-6.15,5.33l-1.82.09c-.41.03-.78.06-1.13.06h-1.35c-.38,0-.75-.03-1.1-.06l-1.04-.09c-1.57-.16-3.48-1.35-4.11-3.14-.09-.47-.13-.72-.16-1.16-.03-.09-.03-.22-.03-.72,0-.72-.13-1.6-.22-3.61v-5.87c0-.5.03-1.04.03-1.57v-2.1c0-.25.03-.44.03-.69v-.91c2.45.06,6.18.38,8.13.38Z"/>
      <path class="cls-1" d="M565.79,258.63l.75-.09,2.29-.09,2.35.03c4.36.06,7.63.16,8.51,2.35l.19.47c.19.5.16,1.1.25,1.6.06.22.13.94.13,1.69,0,.85-.06,1.73-.28,1.95-.56.5-1.66.09-3.11.09-1.29,0-3.14.25-3.89.06-.13-.94-.31-1.85-.31-2.76s-.09-1.41-1.66-1.41-1.41,1.04-1.41,1.69c0,1.29.5,2.17,1.41,2.51l.69.19c3.86,1.04,6.94,1.26,7.94,3.04,1.16,2.1.69,4.33.69,6.12,0,.72-.5,1.35-.88,1.69-.69,1.1-2.42,1.76-4.24,2.01l-1.13.16c-.6.16-1.32.16-2.04.16h-2.13c-.47,0-.97-.03-1.38-.06l-.97-.09c-5.49-.53-4.74-2.6-4.93-5.68,0-1.13-.22-1.79.53-1.79h.13c1.69,0,3.04-.06,4.8-.06,1.79-.06,1.57.22,1.85,1.91.31,1.76.85,1.95,1.88,1.95,1.54,0,1.82-1.35,1.54-2.76l-.06-.31c-.38-.94-1.29-1.13-1.85-1.32l-.82-.25c-.22-.06-.47-.16-.72-.22l-.69-.16c-.72-.16-1.51-.44-2.17-.63-2.79-.72-4.21-3.3-4.21-6.56,0-3.86-.16-4.52,2.95-5.43Z"/>
      <path class="cls-1" d="M588.17,272.97c0-.16.03-.28.03-.38v-.75c0-.41.06-1,.13-1.47l.09-7.34v-.41l.03-.38-.06-5.56h-.28c-.6,0-3.7.13-4.52.13-.41,0-.5-.13-.5-.35,0-.19.09-.47.09-.72v-2.42c0-1.98.19-1.41,1.26-1.57h1.29c13.84,0,15.32.22,15.94.28l.34.03v.56c0,1.29-.19,2.61-.09,3.92-1.57.03-5.15.06-5.99.16l-.28,4.43.22.06h.5l3.36.13c.25,0,.5.06.75.06,0,.85.28,2.6.03,3.99-1.57-.09-2.92-.09-3.48-.09l-1.85.16c-.06.66-.22,1.91-.31,3.36l5.08.22c.31,0,1.57-.03,2.39.06,0,1.1.34,2.35.09,3.83l-13.93.47c-.25,0-.31-.22-.31-.41Z"/>
      <path class="cls-1" d="M614.78,270.58c.91-.19,1.1.16,1.41.16-1.88,9.35-2.73,9.29-2.76,11.02-.31.03-2.76.13-3.86.47l-1.41.13c1.07-6.78,2.51-11.68,3.26-11.61,1.22,0,1.85.13,3.36-.16Z"/>
      <path class="cls-1" d="M654.58,274.07s-.03,0-.03.03c-.13,2.73-2.17,4.39-3.86,4.46l-.79.09c-3.61-.19-10.36-.16-10.64-5.33l-.06-1.1c-.03-.63,0-1.47-.03-2.2,0-1.44.22-2.23.13-5.74,0-.35.06-.72.06-1.04l.34-2.98c.56-2.89,5.93-4.96,10.55-4.46,1.13,0,4.68.28,6.12,1.63l.09.06c.19.25.72,1.32.72,2.01v.16l.06.79c.03.34.06,2.73.13,4.21-1.07.38-2.79.28-4.21.28-1.16,0-3.08-.22-2.89-.69.66-3.86-.13-4.17-.94-4.17-.53,0-.25.03-.75.09l-.47.16c-.69.22-1.07.5-1.07,1.16l-.88,9.38c0,1.54.47,2.89,2.35,2.98,1.07-.06,2.07-.16,2.89-.82.31-.56.56-1.38.13-2.35l-.31-.06c-.66.06-1.41.09-2.1.09-.31,0-.56-.03-.78-.09v-.66c0-.75.25-2.48.66-3.23l4.77-.06c.56.03,1.1-.03,3.23.06.6,0,1.38-.06,1.92-.06.31,0,.53,0,.78.03l-.03,4.02v.16c0,.38-.16,1.54-.16,2.1v.91c0,.5-.13,1-.13,1.6v.19l-.13,2.76c-.09,2.04-.75,2.29-3.48,2.29-.28,0-.53-.03-.78-.03-.34,0-.66.03-.88.03,0-.28,0-1,.6-5.81,0-.47-.03-.85-.13-.85Z"/>
      <path class="cls-1" d="M682.51,258.22l.28.06c1.48.31,2.57,1.95,3.01,3.36l.16.5c.09.28.13.53.16.88l.34,5.08v.91c0,.22.03.53.03.82,0,.82-.09,1.63-.09,2.45v.63c-.47,4.64-4.27,5.59-9.48,5.59-6.56,0-7.72-2.07-8.91-4.11l-.19-.47c-.41-.72-.56-2.45-.6-3.23l-.03-.94v-.91c0-1.44.09-2.89.75-7.22l.31-.85c.25-.66.91-1.47,2.32-1.91l1.1-.35c2.2-.35,4.46-.69,7.25-.69,1.95,0,2.13.09,3.58.41ZM676.86,273.53h1c2.23,0,2.67-1.41,2.67-2.39l-.25-2.64-.13-2.95c-.03-.82-.47-2.45-1.88-2.54l-1.63-.09c-1.88.03-1.6,3.89-1.6,5.81v.38c0,2.17-.13,4.43,1.82,4.43Z"/>
      <path class="cls-1" d="M709.72,258.22l.28.06c1.48.31,2.57,1.95,3.01,3.36l.16.5c.09.28.13.53.16.88l.34,5.08v.91c0,.22.03.53.03.82,0,.82-.09,1.63-.09,2.45v.63c-.47,4.64-4.27,5.59-9.48,5.59-6.56,0-7.72-2.07-8.91-4.11l-.19-.47c-.41-.72-.56-2.45-.6-3.23l-.03-.94v-.91c0-1.44.09-2.89.75-7.22l.31-.85c.25-.66.91-1.47,2.32-1.91l1.1-.35c2.2-.35,4.46-.69,7.25-.69,1.95,0,2.13.09,3.58.41ZM704.07,273.53h1c2.23,0,2.67-1.41,2.67-2.39l-.25-2.64-.13-2.95c-.03-.82-.47-2.45-1.88-2.54l-1.63-.09c-1.88.03-1.6,3.89-1.6,5.81v.38c0,2.17-.13,4.43,1.82,4.43Z"/>
      <path class="cls-1" d="M730.34,278.24c-1.88.03-5.21.41-8.69-.03,0-.38-.03-.88-.03-1.48v-2.48c0-.69.03-1.38.03-2.1l-.06-3.36c0-.47.06-.94.06-1.41v-.22c0-1,.03-1.63.03-2.35v-1.51c0-1.1-.13-1.76-.13-2.6v-2.23c2.29,0,5.24-.16,7.25-.22l.91-.03h.6c2.2,0,6.4.41,8.28,2.64l.53.63c.19.25.31.44.47.69l.28.66c.06.28.22.53.25.88l.22,2.07c0,.6.06,1.26.06,1.85v.47c0,.72.06,1.35.06,2.01,0,.44-.06.88-.06,1.29v.41c0,1.26-.16,2.61-.69,3.11l-.38.34c-.56.53-4.74,2.92-8.41,2.92-.22.03-.38.06-.6.06ZM729.11,267.32v.5c0,1.6.06,3.01.09,4.39l.03,1.51h.06c.09,0,.13.03.19.03,2.17.09,3.64-.16,4.02-.38l.22-.22c.38-.38.31-.88.41-1.32.03-3.36-.06-4.33-.09-5.05-.06-1.66.03-3.01-.66-3.42l-.91-.44c-.31-.06-.88-.25-1.32-.25h-.5c-.44,0-1.07.09-1.66.19v.6l.13,3.86Z"/>
      <path class="cls-1" d="M779.45,257.68l1.19.03c2.32.06,4.68.75,5.52,2.51l.28.6c.53,1.6.66,3.3.66,5.15,0,.88-.47,1.1-1.26,1.1-2.17,0-6.9-.47-6.9-.72l-.13-2.76c-.03-.82-.31-1.54-1.57-1.54h-.97c-1.07-.19-1.88.25-2.6,1.07l-.47.97c-.78,2.01-.82,4.55-.82,6.84,0-.06,0-.13-.03-.19.19,2.98.19,4.17,2.29,4.17l1.41-.22c1.35-.38,1.44-.35,1.44-1.44-.53,0-.97.06-1.54.06-.38,0-.66-.06-.82-.19v-2.35c0-.47.03-.88.13-1.26.34-.06.69-.06,1.07-.06h2.92c2.39,0,5.62-.13,7.66-.13l.31,10.86c0,.16-.03.31-.03.44-2.7,0-4.93.22-7.53.31,0-.35-.03-.75-.03-1.1l-.09-2.32c0-.38-.06-.79-.06-1.13-.13,1.16-1.6,2.95-3.04,2.95h-.63c-4.36,0-6.68,0-10.2-4.36l-.31-.5c-.47-1.13-.78-3.04-.78-5.12v-.94c0-.41,0-.78.25-4.08.06-.5.22-1.04.41-1.57l.25-.69c.97-3.86,7.56-4.43,11.17-4.43h1.26c.53,0,1.16.03,1.6.03Z"/>
      <path class="cls-1" d="M810.58,258.22l.28.06c1.48.31,2.57,1.95,3.01,3.36l.16.5c.09.28.13.53.16.88l.34,5.08v.91c0,.22.03.53.03.82,0,.82-.09,1.63-.09,2.45v.63c-.47,4.64-4.27,5.59-9.48,5.59-6.56,0-7.72-2.07-8.91-4.11l-.19-.47c-.41-.72-.56-2.45-.6-3.23l-.03-.94v-.91c0-1.44.09-2.89.75-7.22l.31-.85c.25-.66.91-1.47,2.32-1.91l1.1-.35c2.2-.35,4.46-.69,7.25-.69,1.95,0,2.13.09,3.58.41ZM804.93,273.53h1c2.23,0,2.67-1.41,2.67-2.39l-.25-2.64-.13-2.95c-.03-.82-.47-2.45-1.88-2.54l-1.63-.09c-1.88.03-1.6,3.89-1.6,5.81v.38c0,2.17-.13,4.43,1.82,4.43Z"/>
      <path class="cls-1" d="M831.2,278.24c-1.88.03-5.21.41-8.69-.03,0-.38-.03-.88-.03-1.48v-2.48c0-.69.03-1.38.03-2.1l-.06-3.36c0-.47.06-.94.06-1.41v-.22c0-1,.03-1.63.03-2.35v-1.51c0-1.1-.13-1.76-.13-2.6v-2.23c2.29,0,5.24-.16,7.25-.22l.91-.03h.6c2.2,0,6.4.41,8.28,2.64l.53.63c.19.25.31.44.47.69l.28.66c.06.28.22.53.25.88l.22,2.07c0,.6.06,1.26.06,1.85v.47c0,.72.06,1.35.06,2.01,0,.44-.06.88-.06,1.29v.41c0,1.26-.16,2.61-.69,3.11l-.38.34c-.56.53-4.74,2.92-8.41,2.92-.22.03-.38.06-.6.06ZM829.98,267.32v.5c0,1.6.06,3.01.09,4.39l.03,1.51h.06c.09,0,.13.03.19.03,2.17.09,3.64-.16,4.02-.38l.22-.22c.38-.38.31-.88.41-1.32.03-3.36-.06-4.33-.09-5.05-.06-1.66.03-3.01-.66-3.42l-.91-.44c-.31-.06-.88-.25-1.32-.25h-.5c-.44,0-1.07.09-1.66.19v.6l.13,3.86Z"/>
    </g>
    <g>
      <path class="cls-1" d="M647.85,171.72l-.04-.16c-2.9-11.83-5.66-24.12-9.19-35.88-1.2-3.82-1.88-8.4-3.43-11.96-1.85-4.1-6.02-3.86-10.33-3.54-3.95.55-10.42,0-13.39,2.21-1.15.96-1.74,2.44-2.35,4.78-2.37,9.92-4.67,20.04-7.47,29.88-3.72,16.25-7.38,33.07-10.51,49.44-.28,1.88-.89,4.11.56,5.48,1.96,1.66,7.22,2.28,10.39,2.25,9.53-.4,5.65-14.94,10.18-19.84.93-.81,2.19-1.12,3.44-1.26,4.82-.42,10.06.04,14.92-.08,1.16,0,2.48.1,3.41.67,1.22.7,1.81,2.12,2.19,3.45.97,3.5,1.8,7.01,2.95,10.42,2.24,8.24,5.71,6.05,12.52,5.1,2.54-.64,8.58-1.07,7.39-3.94-1.87-6.23-8.38-27.54-11.24-37.01ZM632.75,182.2c-.36.35-.92.43-1.48.47-3.87.06-9.81.04-13.87.01h-.17c-2.53-.05-6.15.27-5.56-3.19,2.26-12.57,5.46-25.25,8.8-37.56,2.23-7.9,4.68,9.16,5.25,10.82,2.36,8.65,4.34,17.5,6.8,26.14.25,1.03.88,2.59.23,3.31Z"/>
      <path class="cls-1" d="M596.1,132.19c.58-11.34,1.23-32.95.43-44.56-.29-7.51-3.46-15.27-11.7-16.73-13.07-3.45-37.41-3.31-51.36-2.16-3.07-.02-4.3,2.62-4.07,5.52-.22,46.89-.5,98.06.14,144.89,0,3,2.29,4.13,4.88,4.01,4.33-.25,8.53-.06,12.59-.9,1.65-.57,2.01-2.31,1.98-3.91-.21-6.34-.63-12.96-.76-19.32v-.17c-.19-10.73-.08-31.08-.24-41.74.02-.85.06-1.6.61-2.22.75-.88,2.67-.91,4.92-.87,3.27.03,13.13.05,16.54-.15,10.41-.47,20.45-3.65,24.13-13.39,1.1-2.68,1.73-5.5,1.91-8.29ZM576.01,132.68c-.42,6.6-7.4,8.04-12.86,7.92h-6.08c-2.23,0-4.72-.01-6.97-.28-1.83-.24-1.35-.82-1.43-2.5,0-.52,0-1.04,0-1.59.05-10.89-.1-39.42.06-45.85.41-.86,1.21-.7,2.43-.92,5.39-.47,19.55-1.6,23.39,3.39,1.2,1.65,1.55,3.44,1.7,5.32.66,8.77.92,25.63-.25,34.51Z"/>
      <path class="cls-1" d="M749.09,197.55c-5.62-1.21-14.43.47-19.54-2.62-1.96-1.01-3.35-2.61-4.05-4.55-5.23-13.77-14.69-51.95-22.12-64.55-.43-1.36,1.45-2.32,2.47-3.06,2.45-1.57,4.75-4.16,5.98-7.05,1.13-2.57,1.42-5.24,1.64-7.97.66-8.16,1.49-18.96-1.11-26.51-4.38-14.56-25.83-12.88-38.99-13.08-4.02.39-11.45-.96-13.41,3.42l-.06.16c-1.56,33.56-.96,70.29-.47,103.92.16,3.26,1.4,4.89,4.91,5.39,3.81.65,9.91,2.13,12.15.17,1.28-1.02,1.54-2.85,1.67-4.49.61-12.35-.1-26.83-.68-39.38-.12-4.93-1.65-10.05,4.7-9.79,11.14-1.39,19.18,42.91,21.84,49,5.36,24.85,9.5,35.16,37.55,34.86,8.52-.27,9.92,1.6,9.28-8.13-.17-1.94.3-4.74-1.76-5.73ZM688.95,111.61c-1.95,2.17-6.3,1.37-9.33,1.64-1.67.05-2.9-1.03-3.07-2.68-.69-4.78-.29-12.13-.45-17.08v-.19c-.12-2.81-.05-5.89.2-8.94.1-.99.25-2.09.95-2.81.61-.64,1.65-.9,3.01-.96,2.37-.06,5.02.01,7.37.45,9.14.82,5.38,26.06,1.31,30.57Z"/>
      <path class="cls-1" d="M786.29,81.29l.06-.12c1.01-3.18.3-7.14.49-10.56.21-3.67-1.53-5.03-5.13-4.93-16.32.36-36.53-.16-52.08-.33-1.72,0-3.71.05-5.14.93-2.5,1.49-2.52,5.33-2.63,8.15-.07,2.71-.46,6.58,2.36,7.51,3.72,1.13,7.77.61,11.63.99,4.36.15,8.48-.06,8.22,4.98.55,27.35-1.67,57.36-.13,84.31,1.35,3.52,5.41,3.09,8.5,2.9,3.19-.26,7.51-.03,9.48-1.94,1.15-1.2,1.04-3.37,1.03-5.09-.36-26.35-.95-53.61-.95-80.07-.37-5.65,3.26-5.54,7.81-5.4,2.38.02,4.96.05,7.39.09,4.48-.1,7.66.73,9.08-1.41Z"/>
      <path class="cls-1" d="M197.53,209.57h-.13c-6.76.37-33.09,1.1-40.98,1.44-1.87.09-1.84-1.16-2-3.18-1.56-43.81,1.09-80.17-.58-119.98-.17-2.68,1.27-4.03,3.77-3.86,11.45-.06,28.25.89,38.88-1.05,5.63-1.53,5.25-11.67,4.64-16.65-6.16-.58-54.37,1.68-82.34,2.15-9.88.35-16.11.24-18.65.49-2.21,2.72-2.03,9.09-1.84,13.04.17,4.99,29.17-1.03,32.74,2.51,5.15,43.76,1.57,87.49,1.21,127.15-6.56.43-34.73.35-41.47.35-3.96.15-2.69,6.81-3.32,10.04-.05,1.55-.28,3.56,1.17,4.47,33.21.38,70.75.66,104.09.3,9.16.56,12.52-3.72,12-13.21.58-4.75-3.79-4.33-7.19-4Z"/>
      <path class="cls-1" d="M210.16,146.48c-7.07-2.74-15.8-3.54-21.52-8.67-6.09-6.6-4.57-23.36,7.83-19.8,5.3,1.82,5.32,9.05,6.4,15.06.33,2.5,1.93,4.51,4.52,4.77,4.63.46,10.32.82,14.04-1.04,3.69-2.63,2.23-11.07,1.69-15.23-1.64-14.41-13.93-16.78-29.79-16.42-8.62.05-20.37.7-23.68,10.17l-.07.19c-12.08,50.22,38.7,29.49,37.62,56.5.08,6.46-4.43,12.65-11.3,11.06-3.43-.74-5.51-4.38-6.14-7.83-.73-2.74-.26-5.89-2.04-8.19-2.47-2.73-8.66-1.75-12.62-1.91-4.4-.08-9.5-.02-9.14,5.8.52,6.74,3.15,14.99,8.5,19.25,2.57,1.89,5.86,2.91,9.3,3.54,17.48,2.36,44.9,1.57,42.48-22.07-.97-11.06-4.58-21.65-16.1-25.16Z"/>
      <path class="cls-1" d="M308.84,202.25c-11.59.76-28.24,1.29-39.65,2.51-2.94.18-6.96,1.45-9.21-1-5.48-38.18-2.92-85.13-7.91-122.89-.13-1.38-.41-3.24-1.46-3.93l-.11-.08c-2.64-1.17-5.88.36-8.65.6-4.15.66-8.21.98-7.47,5.53,4.89,38.97,2.93,100.53,9.59,137.07.89,1.33,3.05,1.42,4.7,1.29,19.52-1.29,41.41-3.67,60.72-4.24,3.93.06,5.47-2.13,5.43-5.95.17-5.15-.31-9.72-5.96-8.91Z"/>
      <path class="cls-1" d="M333.85,157.8l-.05-.15c-7.04-17.7-10.22-36.75-15.68-54.97-2.86-9.06-1.54-16.53-13.6-14.82-4.07.76-9.5-.16-12.91,2.04-1.55,1.13-2.26,3.23-2.78,5.1-3.25,12.46-6.49,25.28-9.51,37.81-2.34,11.72-5.27,23.85-7.59,35.7-.46,2.42-.96,4.92-1.3,7.23-.3,2.09-.06,3.66,1.82,4.53,3.78,1.4,10.55,2.73,13.37.16,3.28-2.86,3.34-10.56,4.69-15.71.56-2.53,2.75-3.9,5.22-3.99,4.86-.38,10.1.06,14.96-.06,1.69-.01,3.46.32,4.42,1.82,2.24,4.76,2.7,10.29,4.82,15.1.55,1.39,1.33,2.87,2.78,3.41.94.37,2.16.33,3.23.19,3.6-.53,8.2-1.17,10.97-2.15,3.25-.84,1.83-3.71,1.22-6.2-1.27-4.55-2.74-10.93-4.08-15.06ZM312.4,149.86c-.36.35-.92.42-1.48.47-3.87.06-9.81.04-13.87.01h-.17c-2.53-.05-6.15.27-5.56-3.19,2.26-12.57,5.46-25.25,8.8-37.56,2.23-7.9,4.68,9.16,5.25,10.82,2.36,8.65,4.34,17.5,6.8,26.14.25,1.03.88,2.59.23,3.31Z"/>
      <path class="cls-1" d="M364.47,138.32c.54-.39,1.38,1.67,1.74,2.31,7.72,15.75,15.75,31.55,23.9,47.08,1.82,3.2,5.38,3.21,8.79,3.16,1.46,0,2.99.05,4.4-.3,3.94-.96,3.1-5.97,3.51-9.1,1.21-12.36,2.71-25.12,4.09-37.66,2-20.57,4.89-43.86,6.41-64.32.23-3.49.46-6.72.48-9.48.06-1.8-1.25-3.09-2.98-3.48-3.12-.76-6.41-1.09-9.55-1.29-1.1-.06-2.42,0-3.27.66l-.11.09c-.88.71-1.08,2.27-1.17,3.5-2.24,26.23-6.05,61.94-7.28,87.76-.07,1.26-.23,3.07-1.54,1.34-.42-.55-.93-1.41-1.43-2.27-5.62-9.68-11.18-19.69-15.65-29.79-3.2-7.94-6.55-16.07-10.15-23.83-1.23-2.61-3.03-3.48-5.64-3.53-3.42-.16-8.22-.54-10.58,1.45-1.7,1.34-1.9,3.87-1.8,6.01.45,10.07,1.05,22.57,1.69,33.32,1.4,23.17,2.69,48,3.88,71.36.1,2.43.72,5.52,3.42,5.94,3.24.37,8.25-.27,10.34-2.34,1.1-1.18,1.32-3.07,1.4-4.69,1.43-23.01-3.79-49.14-2.9-71.9Z"/>
      <path class="cls-1" d="M429.49,190.53c7.2,1.22,14.28,1.44,21.62,1.86h.25c28.81,1.37,36.74-9.67,37.08-35.79.96-9.38,3.08-27.28,3.96-39.12.89-7.66.44-16.84-4.56-22.91-9.63-12.27-31.28-11.33-47.35-12.68-1.6-.12-3.56-.1-4.71.99-1.18,1.05-1.5,3.05-1.65,4.67-2.87,30.22-6.91,64.09-10.17,94.74-.71,4.54.81,7.54,5.55,8.23ZM446.76,174.63c.52-7.61,1.23-15.82,2.02-24.22,1.66-16.76,3.44-35.44,4.91-51.53l.04-.17c.41-2.03,2.35-2.65,4.21-2.61,5.94.23,13.88.79,16.1,7.22,4.85,15.23-2.1,45.48-3,62.21-.07,3.81-1.16,8.64-3.76,11.39-3.69,4.02-9.43,3.52-15.9,2.79-3.23-.22-5.1-1.75-4.62-5.09Z"/>
      <path class="cls-1" d="M508.37,209.59c-.82,0-1.65,0-2.47,0l-4.69,5.22-5.22-5.19c-.53,0-4.64,7.23-4.64,7.23l-4.29-7.21c-.8,0-1.6,0-2.39,0-20.96.02-41.94.02-62.9.03-11.94.01-23.86.02-35.79.03-1.33,0-2.64.08-3.2,1.6-.53,1.44.5,2.25,1.33,3.13,4.36,4.57,9.84,7.38,15.58,9.66.29.11.57.24.82.37-.03.05-.01.03,0,0,.92.5,1.14,1.59,1.16,2.8.04,3.24.16,6.47.26,9.71.09,2.78,1.71,3.71,4.07,2.18.81-.52,1.61-1.04,2.42-1.58,2.82-1.87,5.61-3.78,8.35-5.76,1.09-.78,2.14-1.27,3.3-1.47.41-.08.82-.11,1.26-.1.11,0,.23.03.36.05,15.08,2.86,29.85,3.63,45.15,2.56,11.12-.77,22.07-2.43,32.32-7.1,5.42-2.47,10.21-5.75,12-10.37,1.57-4.71.8-5.8-2.8-5.79Z"/>
      <path class="cls-1" d="M829.75,93.67c-4.42-.58-8.35-1.16-9.87,3.36-4.88,12.7-8.28,26.45-13.14,39.21-1.18,2.84-2.36,1.35-3.33-.72-4.98-10.08-9.42-22.66-13.9-32.19-.74-1.2-2.14-1.59-3.51-1.6-2.18-.02-5.6.21-8.08.26-1.58.05-2.89.15-3.6.62l-.1.07c-1.14.85-.61,2.86-.16,4.22,5.61,15.03,13.1,30.01,20.15,44.57,1.31,2.65,2.24,5.17,2.54,8.04.77,7.74.97,27.49.99,43.4-.03.11-.07.22-.07.34,0,1.58,0,3.14,0,4.66,0,.11.04.22.07.32,0,5.16-.02,9.64-.04,12.76,0,.26.09.48.22.68.01.24.02.49.03.73-.27,5.57,5.86,4.59,10.45,4.67,3.22-.07,9.04.37,9.04-3.87.02-.41.03-.84.04-1.25.26-.23.43-.56.44-.94.12-13.93.07-51.26.07-60.81-.05-2.48.52-4.84,1.41-7.26,6.76-18.04,10.98-35.23,17.86-53.67,2.78-6.35-3.3-4.9-7.52-5.6Z"/>
    </g>
  </g>
  <g>
    <path class="cls-1" d="M111.96,170.4c-.2-1.87-3.43-3.62-3.59-3.69-7.2-3.32-12.58-9.85-14.8-17.43-1.1-3.76-1.42-7.73-.79-11.6.42-2.56.87-5.19-.43-7.58-1-1.84-2.83-3.06-4.76-3.73-3.9-1.36-8.36-.2-11.59,2.21-3.4,2.53-5.89,6.35-6.69,10.53-1.86,9.73,4.13,18.74,11.6,24.35,4.34,3.26,9.33,5.68,14.33,7.75,5.01,2.06,10.81,3.42,15.86.72.49-.26.93-.93.87-1.51Z"/>
    <path class="cls-1" d="M108.05,179.13c-6.06,1.34-12.61.74-18.28-1.81-2.96-1.33-5.68-3.37-8.99-3.7-3.03-.3-5.75,1.27-7.43,3.72-3.53,5.16-.61,11.65,4.24,14.7,5.18,3.25,12.29,3.06,17.94,1.35,13.47-4.07,14.66-14.73,12.52-14.25Z"/>
  </g>
  <g>
    <path class="cls-1" d="M835.83,67.53c-2.56-.26-5.08-.13-7.6.35-5.51,1.05-10.75,3.92-14.35,8.23-3.54,4.25-1.12,4.94.61,4.29,4.72-1.76,9.89-1.96,14.73-.56,2.59.75,4.92,2.13,7.48,2.97,2.57.85,5.45.93,7.87-.43,2.26-1.27,3.37-3.88,3-6.4-.4-2.7-2.08-4.81-4.37-6.21-2.18-1.34-4.84-1.98-7.37-2.24Z"/>
    <path class="cls-1" d="M853.8,43.15c-1.87-3.72-5.18-6.58-9.05-8.06-8.66-3.33-18.04,1.05-24.23,7.13-3.67,3.6-6.71,7.87-9.42,12.22-2.83,4.55-7.86,14.95-6.44,16.97,1.6,2.29,8.02-5.65,9.43-7.08,2.85-2.9,6.41-5.01,10.32-6.11,4.55-1.28,9.35-1.24,14.03-.82,4.59.42,9.53,1.07,13.47-1.9,1.84-1.39,3.05-3.33,3.33-5.64.28-2.33-.4-4.64-1.43-6.71Z"/>
  </g>
</svg>