<?xml version="1.0" encoding="UTF-8"?>
<svg id="Layer_1" xmlns="http://www.w3.org/2000/svg" version="1.1" viewBox="0 0 925.3 317.1">
  <!-- Generator: Adobe Illustrator 29.2.1, SVG Export Plug-In . SVG Version: 2.1.0 Build 116)  -->
  <defs>
    <style>
      .st0 {
        fill: #008080;
      }
    </style>
  </defs>
  <g>
    <path class="st0" d="M647.8,171.7v-.2c-2.9-11.8-5.7-24.1-9.2-35.9-1.2-3.8-1.9-8.4-3.4-12-1.8-4.1-6-3.9-10.3-3.5-4,.6-10.4,0-13.4,2.2-1.2,1-1.7,2.4-2.3,4.8-2.4,9.9-4.7,20-7.5,29.9-3.7,16.2-7.4,33.1-10.5,49.4-.3,1.9-.9,4.1.6,5.5,2,1.7,7.2,2.3,10.4,2.2,9.5-.4,5.7-14.9,10.2-19.8.9-.8,2.2-1.1,3.4-1.3,4.8-.4,10.1,0,14.9,0,1.2,0,2.5.1,3.4.7,1.2.7,1.8,2.1,2.2,3.4,1,3.5,1.8,7,3,10.4,2.2,8.2,5.7,6.1,12.5,5.1,2.5-.6,8.6-1.1,7.4-3.9-1.9-6.2-8.4-27.5-11.2-37h0ZM632.8,182.2c-.4.4-.9.4-1.5.5-3.9,0-9.8,0-13.9,0h-.2c-2.5,0-6.2.3-5.6-3.2,2.3-12.6,5.5-25.2,8.8-37.6,2.2-7.9,4.7,9.2,5.2,10.8,2.4,8.6,4.3,17.5,6.8,26.1.2,1,.9,2.6.2,3.3Z"/>
    <path class="st0" d="M596.1,132.2c.6-11.3,1.2-32.9.4-44.6-.3-7.5-3.5-15.3-11.7-16.7-13.1-3.4-37.4-3.3-51.4-2.2-3.1,0-4.3,2.6-4.1,5.5-.2,46.9-.5,98.1.1,144.9,0,3,2.3,4.1,4.9,4,4.3-.2,8.5,0,12.6-.9,1.7-.6,2-2.3,2-3.9-.2-6.3-.6-13-.8-19.3v-.2c-.2-10.7,0-31.1-.2-41.7,0-.9,0-1.6.6-2.2.8-.9,2.7-.9,4.9-.9,3.3,0,13.1,0,16.5-.1,10.4-.5,20.5-3.6,24.1-13.4,1.1-2.7,1.7-5.5,1.9-8.3h0ZM576,132.7c-.4,6.6-7.4,8-12.9,7.9h-6.1c-2.2,0-4.7,0-7-.3-1.8-.2-1.3-.8-1.4-2.5v-1.6c0-10.9,0-39.4,0-45.8.4-.9,1.2-.7,2.4-.9,5.4-.5,19.5-1.6,23.4,3.4,1.2,1.7,1.5,3.4,1.7,5.3.7,8.8.9,25.6-.2,34.5h0Z"/>
    <path class="st0" d="M749.1,197.6c-5.6-1.2-14.4.5-19.5-2.6-2-1-3.3-2.6-4-4.6-5.2-13.8-14.7-51.9-22.1-64.6-.4-1.4,1.5-2.3,2.5-3.1,2.5-1.6,4.8-4.2,6-7.1,1.1-2.6,1.4-5.2,1.6-8,.7-8.2,1.5-19-1.1-26.5-4.4-14.6-25.8-12.9-39-13.1-4,.4-11.5-1-13.4,3.4v.2c-1.6,33.6-1,70.3-.5,103.9.2,3.3,1.4,4.9,4.9,5.4,3.8.6,9.9,2.1,12.2.2,1.3-1,1.5-2.9,1.7-4.5.6-12.4,0-26.8-.7-39.4-.1-4.9-1.7-10.1,4.7-9.8,11.1-1.4,19.2,42.9,21.8,49,5.4,24.9,9.5,35.2,37.5,34.9,8.5-.3,9.9,1.6,9.3-8.1-.2-1.9.3-4.7-1.8-5.7h0ZM689,111.6c-2,2.2-6.3,1.4-9.3,1.6-1.7,0-2.9-1-3.1-2.7-.7-4.8-.3-12.1-.5-17.1v-.2c-.1-2.8,0-5.9.2-8.9,0-1,.2-2.1,1-2.8.6-.6,1.7-.9,3-1,2.4,0,5,0,7.4.4,9.1.8,5.4,26.1,1.3,30.6h0Z"/>
    <path class="st0" d="M786.3,81.3h0c1-3.3.3-7.3.5-10.7.2-3.7-1.5-5-5.1-4.9-16.3.4-36.5-.2-52.1-.3-1.7,0-3.7,0-5.1.9-2.5,1.5-2.5,5.3-2.6,8.2,0,2.7-.5,6.6,2.4,7.5,3.7,1.1,7.8.6,11.6,1,4.4.2,8.5,0,8.2,5,.5,27.3-1.7,57.4-.1,84.3,1.3,3.5,5.4,3.1,8.5,2.9,3.2-.3,7.5,0,9.5-1.9,1.2-1.2,1-3.4,1-5.1-.4-26.4-1-53.6-1-80.1-.4-5.7,3.3-5.5,7.8-5.4,2.4,0,5,0,7.4,0,4.5,0,7.7.7,9.1-1.4h0Z"/>
    <path class="st0" d="M197.5,209.6h-.1c-6.8.4-33.1,1.1-41,1.4-1.9,0-1.8-1.2-2-3.2-1.6-43.8,1.1-80.2-.6-120-.2-2.7,1.3-4,3.8-3.9,11.4,0,28.2.9,38.9-1.1,5.6-1.5,5.2-11.7,4.6-16.7-6.2-.6-54.4,1.7-82.3,2.2-9.9.3-16.1.2-18.7.5-2.2,2.7-2,9.1-1.8,13,.2,5,29.2-1,32.7,2.5,5.1,43.8,1.6,87.5,1.2,127.1-6.6.4-34.7.4-41.5.4-4,.1-2.7,6.8-3.3,10,0,1.6-.3,3.6,1.2,4.5,33.2.4,70.7.7,104.1.3,9.2.6,12.5-3.7,12-13.2.6-4.8-3.8-4.3-7.2-4h0Z"/>
    <path class="st0" d="M210.2,146.5c-7.1-2.7-15.8-3.5-21.5-8.7-6.1-6.6-4.6-23.4,7.8-19.8,5.3,1.8,5.3,9.1,6.4,15.1.3,2.5,1.9,4.5,4.5,4.8,4.6.5,10.3.8,14-1,3.7-2.6,2.2-11.1,1.7-15.2-1.6-14.4-13.9-16.8-29.8-16.4-8.6,0-20.4.7-23.7,10.2v.2c-12.2,50.2,38.6,29.5,37.5,56.5,0,6.5-4.4,12.6-11.3,11.1-3.4-.7-5.5-4.4-6.1-7.8-.7-2.7-.3-5.9-2-8.2-2.5-2.7-8.7-1.8-12.6-1.9-4.4,0-9.5,0-9.1,5.8.5,6.7,3.1,15,8.5,19.2,2.6,1.9,5.9,2.9,9.3,3.5,17.5,2.4,44.9,1.6,42.5-22.1-1-11.1-4.6-21.6-16.1-25.2h0Z"/>
    <path class="st0" d="M308.8,202.2c-11.6.8-28.2,1.3-39.6,2.5-2.9.2-7,1.4-9.2-1-5.5-38.2-2.9-85.1-7.9-122.9-.1-1.4-.4-3.2-1.5-3.9h-.1c-2.6-1.2-5.9.3-8.6.5-4.1.7-8.2,1-7.5,5.5,4.9,39,2.9,100.5,9.6,137.1.9,1.3,3.1,1.4,4.7,1.3,19.5-1.3,41.4-3.7,60.7-4.2,3.9,0,5.5-2.1,5.4-5.9.2-5.1-.3-9.7-6-8.9h0Z"/>
    <path class="st0" d="M333.9,157.8h0c-7-17.8-10.2-36.9-15.7-55.1-2.9-9.1-1.5-16.5-13.6-14.8-4.1.8-9.5-.2-12.9,2-1.5,1.1-2.3,3.2-2.8,5.1-3.2,12.5-6.5,25.3-9.5,37.8-2.3,11.7-5.3,23.9-7.6,35.7-.5,2.4-1,4.9-1.3,7.2-.3,2.1,0,3.7,1.8,4.5,3.8,1.4,10.5,2.7,13.4.2,3.3-2.9,3.3-10.6,4.7-15.7.6-2.5,2.8-3.9,5.2-4,4.9-.4,10.1,0,15,0,1.7,0,3.5.3,4.4,1.8,2.2,4.8,2.7,10.3,4.8,15.1.5,1.4,1.3,2.9,2.8,3.4.9.4,2.2.3,3.2.2,3.6-.5,8.2-1.2,11-2.1,3.2-.8,1.8-3.7,1.2-6.2-1.3-4.6-2.7-10.9-4.1-15.1h0ZM312.4,149.9c-.4.4-.9.4-1.5.5-3.9,0-9.8,0-13.9,0h-.2c-2.5,0-6.1.3-5.6-3.2,2.3-12.6,5.5-25.2,8.8-37.6,2.2-7.9,4.7,9.2,5.2,10.8,2.4,8.7,4.3,17.5,6.8,26.1.2,1,.9,2.6.2,3.3h0Z"/>
    <path class="st0" d="M364.5,138.3c.5-.4,1.4,1.7,1.7,2.3,7.7,15.8,15.8,31.6,23.9,47.1,1.8,3.2,5.4,3.2,8.8,3.2,1.5,0,3,0,4.4-.3,3.9-1,3.1-6,3.5-9.1,1.2-12.4,2.7-25.1,4.1-37.7,2-20.6,4.9-43.9,6.4-64.3.2-3.5.5-6.7.5-9.5,0-1.8-1.2-3.1-3-3.5-3.1-.8-6.4-1.1-9.5-1.3-1.1,0-2.4,0-3.3.7h-.1c-.9.8-1.1,2.4-1.2,3.6-2.2,26.2-6,61.9-7.3,87.8,0,1.3-.2,3.1-1.5,1.3-.4-.6-.9-1.4-1.4-2.3-5.6-9.7-11.2-19.7-15.6-29.8-3.2-7.9-6.5-16.1-10.1-23.8-1.2-2.6-3-3.5-5.6-3.5-3.4-.2-8.2-.5-10.6,1.4-1.7,1.3-1.9,3.9-1.8,6,.5,10.1,1,22.6,1.7,33.3,1.4,23.2,2.7,48,3.9,71.4.1,2.4.7,5.5,3.4,5.9,3.2.4,8.2-.3,10.3-2.3,1.1-1.2,1.3-3.1,1.4-4.7,1.4-23-3.8-49.1-2.9-71.9h0Z"/>
    <path class="st0" d="M429.5,190.5c7.2,1.2,14.3,1.4,21.6,1.9h.2c28.8,1.4,36.7-9.7,37.1-35.8,1-9.4,3.1-27.3,4-39.1.9-7.7.4-16.8-4.6-22.9-9.6-12.3-31.3-11.3-47.4-12.7-1.6-.1-3.6,0-4.7,1-1.2,1.1-1.5,3.1-1.6,4.7-2.9,30.2-6.9,64.1-10.2,94.7-.7,4.5.8,7.5,5.5,8.2h0ZM446.8,174.6c.5-7.6,1.2-15.8,2-24.2,1.7-16.8,3.4-35.4,4.9-51.5v-.2c.5-2,2.4-2.7,4.2-2.6,5.9.2,13.9.8,16.1,7.2,4.9,15.2-2.1,45.5-3,62.2,0,3.8-1.2,8.6-3.8,11.4-3.7,4-9.4,3.5-15.9,2.8-3.2-.2-5.1-1.8-4.6-5.1h0Z"/>
    <path class="st0" d="M508.4,209.6h-2.5l-4.7,5.2-5.2-5.2c-.5,0-4.6,7.2-4.6,7.2l-4.3-7.2h-2.4c-21,0-41.9,0-62.9,0-11.9,0-23.9,0-35.8,0-1.3,0-2.6,0-3.2,1.6-.5,1.4.5,2.2,1.3,3.1,4.4,4.6,9.8,7.4,15.6,9.7.3.1.6.2.8.4,0,0,0,0,0,0,.9.5,1.1,1.6,1.2,2.8,0,3.2.2,6.5.3,9.7,0,2.8,1.7,3.7,4.1,2.2.8-.5,1.6-1,2.4-1.6,2.8-1.9,5.6-3.8,8.4-5.8,1.1-.8,2.1-1.3,3.3-1.5.4,0,.8-.1,1.3-.1.1,0,.2,0,.4,0,15.1,2.9,29.9,3.6,45.1,2.6,11.1-.8,22.1-2.4,32.3-7.1,5.4-2.5,10.2-5.8,12-10.4,1.6-4.7.8-5.8-2.8-5.8h0Z"/>
    <path class="st0" d="M829.8,93.7c-4.4-.6-8.3-1.2-9.9,3.4-4.9,12.7-8.3,26.4-13.1,39.2-1.2,2.8-2.4,1.4-3.3-.7-5-10.1-9.4-22.7-13.9-32.2-.7-1.2-2.1-1.6-3.5-1.6-2.2,0-5.6.2-8.1.3-1.6,0-2.9.2-3.6.6h0c-1.1.9-.6,2.9-.2,4.3,5.6,15,13.1,30,20.2,44.6,1.3,2.6,2.2,5.2,2.5,8,.8,7.7,1,27.5,1,43.4,0,.1,0,.2,0,.3v4.7c0,.1,0,.2,0,.3,0,5.2,0,9.6,0,12.8,0,.3,0,.5.2.7,0,.2,0,.5,0,.7-.3,5.6,5.9,4.6,10.5,4.7,3.2,0,9,.4,9-3.9,0-.4,0-.8,0-1.2.3-.2.4-.6.4-.9.1-13.9,0-51.3,0-60.8,0-2.5.5-4.8,1.4-7.3,6.8-18,11-35.2,17.9-53.7,2.8-6.3-3.3-4.9-7.5-5.6h0Z"/>
  </g>
  <g>
    <path class="st0" d="M112,170.4c-.2-1.9-3.4-3.6-3.6-3.7-7.2-3.3-12.6-9.9-14.8-17.4-1.1-3.8-1.4-7.7-.8-11.6.4-2.6.9-5.2-.4-7.6-1-1.8-2.8-3.1-4.8-3.7-3.9-1.4-8.4-.2-11.6,2.2-3.4,2.5-5.9,6.4-6.7,10.5-1.9,9.7,4.1,18.7,11.6,24.4,4.3,3.3,9.3,5.7,14.3,7.8,5,2.1,10.8,3.4,15.9.7.5-.3.9-.9.9-1.5h0Z"/>
    <path class="st0" d="M108.1,179.1c-6.1,1.3-12.6.7-18.3-1.8-3-1.3-5.7-3.4-9-3.7-3-.3-5.8,1.3-7.4,3.7-3.5,5.2-.6,11.6,4.2,14.7,5.2,3.2,12.3,3.1,17.9,1.4,13.5-4.1,14.7-14.7,12.5-14.2h0Z"/>
  </g>
  <g>
    <path class="st0" d="M835.8,67.5c-2.6-.3-5.1-.1-7.6.3-5.5,1.1-10.8,3.9-14.3,8.2-3.5,4.2-1.1,4.9.6,4.3,4.7-1.8,9.9-2,14.7-.6,2.6.8,4.9,2.1,7.5,3,2.6.8,5.5.9,7.9-.4,2.3-1.3,3.4-3.9,3-6.4-.4-2.7-2.1-4.8-4.4-6.2-2.2-1.3-4.8-2-7.4-2.2Z"/>
    <path class="st0" d="M853.8,43.2c-1.9-3.7-5.2-6.6-9-8.1-8.7-3.3-18,1-24.2,7.1-3.7,3.6-6.7,7.9-9.4,12.2-2.8,4.5-7.9,14.9-6.4,17,1.6,2.3,8-5.7,9.4-7.1,2.8-2.9,6.4-5,10.3-6.1,4.5-1.3,9.3-1.2,14-.8,4.6.4,9.5,1.1,13.5-1.9,1.8-1.4,3-3.3,3.3-5.6.3-2.3-.4-4.6-1.4-6.7h0Z"/>
  </g>
</svg>